<?xml version="1.0" encoding="UTF-8"?>
<svg width="296px" height="84px" viewBox="0 0 296 84" version="1.1" xmlns="http://www.w3.org/2000/svg" xmlns:xlink="http://www.w3.org/1999/xlink">
    <!-- Generator: Sketch 49.2 (51160) - http://www.bohemiancoding.com/sketch -->
    <title>1</title>
    <desc>Created with Sketch.</desc>
    <defs></defs>
    <g id="Page-1" stroke="none" stroke-width="1" fill="none" fill-rule="evenodd">
        <g id="首页" transform="translate(-101.000000, -52.000000)">
            <g id="Page-1" transform="translate(101.000000, 52.000000)">
                <g id="Group">
                    <path d="M120.048956,34.5763139 L123.268807,38.3026177 L118.426457,37.6529468 C118.183894,37.6199848 96.224885,34.8038582 69.1400991,41.1750987 C66.2356319,41.8582633 63.2735363,42.6440354 60.2711009,43.5531494 C59.303469,43.8514025 58.2771611,43.2873266 57.9858761,42.3000608 C57.6956389,41.3138582 58.2483469,40.2750228 59.2206938,39.9815544 C62.3541027,39.0325671 65.4372177,38.2127696 68.4537982,37.5024911 C88.7452531,32.7229975 105.938924,32.9808456 114.014747,33.5077063 C98.7710088,18.1388962 71.4012248,3.55160506 45.6932319,3.72917468 L46.605331,6.04821266 C46.9977274,6.99773165 46.5571327,8.09026329 45.6219823,8.48793418 C44.6815929,8.88401013 43.6091823,8.43955443 43.2178336,7.49003544 L40.2525947,0.199579747 L42.8767788,0.0757063291 C72.4322478,-1.32039494 104.696772,16.808719 120.048956,34.5763139 Z M168.16944,47.0357468 C169.199415,47.5509114 169.674063,48.7779494 169.264378,49.8672911 C168.855217,50.9566329 167.695316,51.5515443 166.588328,51.2373418 C150.859989,46.7938481 134.554842,45.2068861 118.12658,46.5232405 C92.7643568,48.5605063 68.4761161,57.5373418 47.8923285,72.4967848 C47.6125692,72.7004051 47.3024241,72.828 46.9849444,72.8848861 C46.1676701,73.0310886 45.3032453,72.7051899 44.7877338,71.9752405 C44.0726188,70.9619241 44.3020842,69.5514684 45.3016736,68.8241772 C66.5434719,53.3889114 91.6034081,44.1202025 117.776619,42.0207342 C126.60161,41.3136456 135.39412,41.4189114 144.086042,42.3290886 C138.268725,40.5900759 132.342438,39.2460759 126.350665,38.2896456 L121.838367,33.0944051 C137.905143,35.053519 153.582665,39.7421013 168.16944,47.0357468 Z M21.8915313,34.6259165 C21.0517296,34.9635114 20.0584269,34.7620177 19.4129897,34.0453595 L13.9859738,28.0351063 L16.8228588,26.7522456 C18.8655207,25.8239924 20.9857189,24.995157 23.1253012,24.281157 C34.7405508,20.4043975 47.136926,19.8780684 58.9748304,22.7590557 C60.1776906,23.0514608 60.9190004,24.2784987 60.6303349,25.499157 C60.3416694,26.7203468 59.1325225,27.4710304 57.9291384,27.1796886 C46.9006499,24.4959418 35.3498393,24.9871823 24.5256694,28.6002456 C23.5250322,28.9346506 22.5275384,29.2967013 21.5420942,29.6837392 L22.7192835,30.9777646 C23.5548942,31.9038911 23.4909791,33.3409291 22.5783561,34.1889038 C22.3708942,34.3818911 22.1382853,34.5270304 21.8915313,34.6259165 Z M28.2406527,42.4471671 C27.6811342,42.6720532 27.0194563,42.5386101 26.5888156,42.0606608 L21.3472581,36.250838 L23.2395625,35.3954203 C24.6614103,34.7510658 26.1351235,34.1758253 27.6203625,33.6792684 C35.693566,30.984357 44.3095235,30.6185848 52.5383235,32.6218253 C53.3398811,32.8169392 53.8349607,33.6346101 53.6416439,34.4490911 C53.4498988,35.2619772 52.6431023,35.7643823 51.8415448,35.5687367 C44.1528793,33.6978759 36.0995837,34.0402557 28.5544651,36.5586608 C27.8257288,36.8021544 27.1006598,37.0658506 26.384497,37.3486861 L28.7933607,40.0154203 C29.3497359,40.6326608 29.3078244,41.592281 28.6985359,42.1568886 C28.5607519,42.2844835 28.4051554,42.3807114 28.2406527,42.4471671 Z M38.306172,53.7384152 C37.8860092,53.9069468 37.3898818,53.8064658 37.0671632,53.4486684 L28.3736694,43.8008962 L29.791326,43.1586684 C30.6044092,42.7913013 31.4536411,42.4568962 32.3164942,42.1682127 C36.9712906,40.613681 41.9404234,40.4031494 46.6858535,41.5573519 C47.2878074,41.7046177 47.6592481,42.3186684 47.5141296,42.9289975 C47.3695349,43.5377316 46.7649614,43.9136051 46.1640552,43.7689975 C41.8230712,42.7120861 37.2767207,42.9050734 33.0174641,44.327757 C32.7293225,44.4239848 32.4427526,44.5260608 32.1588021,44.6323899 L38.7200481,51.9138076 C39.1375915,52.3774025 39.105634,53.0961873 38.6487986,53.5199089 C38.5455915,53.6161367 38.4292871,53.6889722 38.306172,53.7384152 Z M38.5558598,19.2930987 C37.6406173,19.4568456 36.6845112,19.0262127 36.2082917,18.1548456 L32.4063943,11.1546684 L35.7415023,10.7713519 C43.1881288,9.91752911 49.4685678,10.1248709 56.1063023,11.4428203 C57.3206881,11.6852506 58.1122917,12.8787949 57.8744439,14.111681 C57.63712,15.3429722 56.4604545,16.1420354 55.2455448,15.9065165 C50.0967165,14.8836304 45.1621607,14.5816557 39.6167448,14.9750734 L40.1270173,15.9511747 C40.7268758,17.0490228 40.336051,18.4328962 39.2542103,19.0405671 C39.0299837,19.1665671 38.7947554,19.2505671 38.5558598,19.2930987 Z M0.68504354,76.9337924 C9.53675327,67.5864 19.4907356,59.5628051 30.2551816,52.9874127 C31.1505161,52.440881 32.3041303,52.6120709 33.0192453,53.3850835 C33.9942117,54.4382734 33.7469338,56.1246532 32.5267851,56.8700203 C22.0703887,63.2598684 12.4035002,71.0612354 3.81216566,80.1507797 C2.87177628,81.1444253 1.25189664,81.077438 0.405284248,79.9152608 C-0.249583009,79.0167797 -0.0782697345,77.7397671 0.68504354,76.9337924 Z" id="Combined-Shape" fill="#46B5D8"></path>
                    <path d="M157.98573,76.9390025 L155.472612,76.9390025 C154.908378,76.9390025 154.500789,76.8395848 154.24932,76.6407494 C154.00047,76.4419139 153.87264,76.0899646 153.87264,75.5790532 C153.87264,75.0713316 154.005185,74.7055595 154.272895,74.4828 C154.540605,74.2595089 154.945575,74.1494582 155.496711,74.1494582 L159.421199,74.1494582 C160.061921,74.1494582 160.49361,74.3158633 160.713645,74.6492051 C160.930537,74.9825468 161.042127,75.5631038 161.042127,76.3908759 C161.042127,77.3930278 160.920583,78.3473316 160.676449,79.2532557 C160.435458,80.1586481 160.035727,80.9566481 159.479875,81.6499139 C158.9235,82.3410532 158.205766,82.8891797 157.329291,83.2948253 C156.449674,83.7004709 155.377263,83.9024962 154.108916,83.9024962 C152.872003,83.9024962 151.759776,83.6951544 150.771713,83.2815342 C149.784173,82.8700405 148.941752,82.2841671 148.245497,81.5292304 C147.549242,80.773762 147.014346,79.8657114 146.648668,78.7986987 C146.277752,77.7343443 146.095436,76.5413316 146.095436,75.2217873 C146.095436,73.9665722 146.273036,72.7974835 146.624569,71.7171797 C146.976626,70.6342177 147.487946,69.6963949 148.163245,68.9010532 C148.835925,68.1083696 149.662105,67.4794329 150.641787,67.0169013 C151.622516,66.5575595 152.736838,66.3262937 153.992088,66.3262937 C154.712442,66.3262937 155.385121,66.3853063 156.012746,66.5065215 C156.638275,66.6245468 157.305192,66.8909013 158.009829,67.3045215 C158.433136,67.5761924 158.825532,67.8638127 159.185447,68.175357 C159.545886,68.484243 159.834028,68.7936608 160.054063,69.1052051 C160.274098,69.4140911 160.396166,69.7176608 160.419741,70.0105975 C160.443316,70.3061924 160.31339,70.5565975 160.029964,70.7634076 C159.890084,70.8899392 159.720867,70.9999899 159.527026,71.0967494 C159.32847,71.190319 159.122056,71.2466734 158.902021,71.2631544 C158.682509,71.2791038 158.465093,71.2551797 158.245058,71.190319 C158.025546,71.1286481 157.821752,70.9999899 157.633674,70.8091291 C157.006049,70.1264962 156.415621,69.6613063 155.859245,69.4140911 C155.303394,69.1695342 154.649051,69.0461924 153.896739,69.0461924 C153.239776,69.0461924 152.620534,69.1881418 152.040583,69.4736354 C151.460633,69.7612557 150.960314,70.1669013 150.53596,70.6905722 C150.112654,71.2147747 149.776314,71.8516861 149.526941,72.5986481 C149.275472,73.3461418 149.151309,74.181357 149.151309,75.1032304 C149.151309,76.0415848 149.270233,76.8826481 149.513844,77.6296101 C149.757978,78.3771038 150.096413,79.0134835 150.53596,79.5376861 C150.976031,80.0618886 151.500449,80.4675342 152.111833,80.7551544 C152.721121,81.0401165 153.396421,81.1852557 154.133015,81.1852557 C154.664767,81.1852557 155.162467,81.0778633 155.623493,80.8625468 C156.087139,80.647762 156.494728,80.3548253 156.846785,79.9784203 C157.199366,79.6078633 157.477029,79.1618127 157.681348,78.6429266 C157.885667,78.1266987 157.98573,77.5599646 157.98573,76.9390025" id="Fill-28" fill="#FFFFFF"></path>
                    <path d="M88.8,67.4228127 C89.0965239,66.9953696 89.4197664,66.7183823 89.7639646,66.600357 C90.1081628,66.4818 90.4843186,66.549319 90.891908,66.8045089 C91.3000212,67.0575722 91.5252956,67.347319 91.5729699,67.6726861 C91.6206442,68.0007114 91.533154,68.3228886 91.3162619,68.640281 L87.1313982,74.5766354 L92.1366796,81.7331165 C92.2933239,81.9564076 92.3462372,82.2142557 92.2907044,82.5077241 C92.2351717,82.8027873 92.0046584,83.0850911 91.5965451,83.3541038 C91.1569982,83.6411924 90.7944637,83.7358253 90.5031788,83.6411924 C90.2139894,83.5449646 89.9520425,83.3296481 89.7162903,82.9963063 L85.4397451,76.9871165 L81.1862513,83.020762 C80.6990301,83.7358253 80.0740248,83.8400278 79.3059965,83.3296481 C78.9937558,83.122838 78.7920566,82.8485089 78.7071858,82.5077241 C78.6202195,82.1658759 78.7103292,81.8032937 78.977515,81.4215722 L83.7470442,74.6005595 L79.5868035,68.7099266 C79.4149664,68.4414456 79.3777699,68.1267114 79.4699752,67.7694456 C79.5658478,67.4116481 79.7534018,67.1298759 80.0347327,66.9230658 C80.4423221,66.6354456 80.7891398,66.5062557 81.0804248,66.5275215 C81.3690903,66.5519772 81.6472779,66.7481544 81.9144637,67.1133949 L85.4633204,72.1932684 L88.8,67.4228127 Z" id="Fill-16" fill="#FFFFFF"></path>
                    <path d="M97.073331,82.1391342 C97.073331,82.6473873 96.9517876,83.0285772 96.708177,83.2811089 C96.4640425,83.5368304 96.0695504,83.6628304 95.5215575,83.6628304 C94.9730407,83.6628304 94.5837876,83.5368304 94.3585133,83.2811089 C94.1311434,83.0285772 94.0169345,82.655362 94.0169345,82.1609316 L94.0169345,68.0919949 C94.0169345,67.073362 94.517777,66.5656405 95.5215575,66.5656405 C96.0218761,66.5656405 96.4058903,66.6756911 96.6730761,66.8984506 C96.9381664,67.1217418 97.073331,67.511438 97.073331,68.0675392 L97.073331,82.1391342 Z" id="Fill-18" fill="#FFFFFF"></path>
                    <path d="M102.737933,80.7552608 L108.423752,80.7552608 C109.019419,80.7552608 109.44325,80.849362 109.692099,81.0402228 C109.944092,81.2310835 110.068255,81.5830329 110.068255,82.0907544 C110.068255,82.5990076 109.944092,82.9482987 109.692099,83.1386278 C109.44325,83.3294886 109.019419,83.4262481 108.423752,83.4262481 L101.186159,83.4262481 C100.717274,83.4262481 100.346881,83.3353367 100.081791,83.1524506 C99.8140814,82.9695646 99.6820602,82.6229316 99.6820602,82.1152101 L99.6820602,68.1164506 C99.6820602,67.6214886 99.806223,67.2801722 100.058216,67.0893114 C100.309161,66.8989823 100.685317,66.804881 101.186159,66.804881 L108.447327,66.804881 C108.903115,66.804881 109.242074,66.9042987 109.469968,67.1004759 C109.697338,67.2993114 109.819405,67.6459443 109.835122,68.1377165 C109.848219,68.6321468 109.731915,68.9787797 109.483065,69.174957 C109.231596,69.3764506 108.87954,69.4732101 108.423752,69.4732101 L102.737933,69.4732101 L102.737933,73.5046785 L108.188,73.5046785 C108.690938,73.5046785 109.051377,73.6120709 109.271412,73.8268557 C109.488304,74.0421722 109.599894,74.3861468 109.599894,74.8640962 C109.599894,75.339919 109.488304,75.6785772 109.271412,75.8774127 C109.051377,76.0762481 108.690938,76.1756658 108.188,76.1756658 L102.737933,76.1756658 L102.737933,80.7552608 Z" id="Fill-20" fill="#FFFFFF"></path>
                    <path d="M119.233934,69.5699165 L119.233934,82.424043 C119.233934,82.7409038 119.114486,83.0285241 118.878734,83.2815873 C118.646125,83.5367772 118.254253,83.6627772 117.705736,83.6627772 C117.157743,83.6627772 116.76587,83.5288025 116.530118,83.2597899 C116.294366,82.9886506 116.177538,82.7116633 116.177538,82.424043 L116.177538,69.5699165 L113.169339,69.5699165 C112.889056,69.5699165 112.612964,69.4651823 112.345778,69.2610304 C112.081212,69.0542203 111.948667,68.6964228 111.948667,68.186043 C111.948667,67.6942709 112.07283,67.3396633 112.324823,67.1243468 C112.573672,66.909562 112.856575,66.8048278 113.169339,66.8048278 L122.239513,66.8048278 C122.554897,66.8048278 122.835704,66.909562 123.086649,67.1243468 C123.336023,67.3396633 123.462805,67.6942709 123.462805,68.186043 C123.462805,68.6964228 123.330784,69.0542203 123.063598,69.2610304 C122.795888,69.4651823 122.522939,69.5699165 122.239513,69.5699165 L119.233934,69.5699165 Z" id="Fill-22" fill="#FFFFFF"></path>
                    <path d="M128.375462,82.1391342 C128.375462,82.6473873 128.253919,83.0285772 128.010308,83.2811089 C127.766697,83.5368304 127.372205,83.6628304 126.823688,83.6628304 C126.275696,83.6628304 125.886442,83.5368304 125.661168,83.2811089 C125.433798,83.0285772 125.319589,82.655362 125.319589,82.1609316 L125.319589,68.0919949 C125.319589,67.073362 125.819908,66.5656405 126.823688,66.5656405 C127.324007,66.5656405 127.708545,66.6756911 127.975731,66.8984506 C128.240297,67.1217418 128.375462,67.511438 128.375462,68.0675392 L128.375462,82.1391342 Z" id="Fill-24" fill="#FFFFFF"></path>
                    <path d="M134.040064,82.4241494 C134.040064,82.7410101 133.920616,83.0286304 133.688007,83.281162 C133.452255,83.5368835 133.060382,83.6628835 132.512389,83.6628835 C131.963873,83.6628835 131.572,83.5289089 131.336248,83.2598962 C131.101019,82.988757 130.984191,82.7117696 130.984191,82.4241494 L130.984191,67.6858709 C130.984191,67.3987823 131.063299,67.1404025 131.219943,66.9091367 C131.376064,66.6810608 131.736503,66.565162 132.300736,66.565162 C132.612453,66.565162 132.867065,66.6597949 133.063002,66.8506557 C133.258938,67.0409848 133.42868,67.2318456 133.569083,67.4227063 L140.99423,77.5601241 L140.99423,67.8044278 C140.99423,67.5194658 141.113678,67.2398203 141.34943,66.9713392 C141.582039,66.6996684 141.974959,66.565162 142.522428,66.565162 C143.070421,66.565162 143.462818,66.6916937 143.69857,66.9468835 C143.934322,67.1999468 144.050627,67.4870354 144.050627,67.8044278 L144.050627,82.5905544 C144.050627,82.8622253 143.970995,83.1067823 143.814874,83.3295418 C143.658754,83.5528329 143.306173,83.6628835 142.758704,83.6628835 C142.44594,83.6628835 142.183469,83.5687823 141.971816,83.3779215 C141.759639,83.1875924 141.582039,82.9967316 141.442159,82.8058709 L134.040064,73.0044532 L134.040064,82.4241494 Z" id="Fill-26" fill="#FFFFFF"></path>
                    <path d="M174.224867,82.6632304 C174.224867,82.9481924 174.185051,83.1470278 174.105419,83.2597367 C174.02893,83.370319 173.888527,83.4266734 173.684732,83.4266734 C173.480937,83.4266734 173.340534,83.370319 173.260902,83.2597367 C173.181794,83.1470278 173.144074,82.9481924 173.144074,82.6632304 L173.144074,75.7943696 L168.724505,67.9712051 C168.427982,67.4310532 168.411741,67.0732557 168.679451,66.8988759 C168.803613,66.8180658 168.941398,66.7914835 169.089659,66.8154076 C169.237921,66.8393316 169.399805,67.0089266 169.571642,67.3284456 L173.708831,74.5769013 L177.726049,67.543762 C177.946084,67.1460911 178.133638,66.9095089 178.290282,66.8393316 C178.446403,66.7670278 178.586282,66.7723443 178.713589,66.8504962 C178.838275,66.9307747 178.90481,67.0626228 178.912144,67.2455089 C178.920527,67.4283949 178.830417,67.6777367 178.642339,67.9951291 L174.224867,75.7943696 L174.224867,82.6632304 Z" id="Fill-31" fill="#FFFFFF"></path>
                    <path d="M189.876194,77.5599114 L186.655819,67.9466962 L183.435444,77.5599114 L189.876194,77.5599114 Z M183.083387,78.5838608 L182.167097,81.3276835 C182.087465,81.550443 182.010452,81.7870253 181.931344,82.0427468 C181.854332,82.2979367 181.775224,82.5286709 181.698736,82.7328228 C181.61858,82.9401646 181.52847,83.1118861 181.428406,83.2463924 C181.325199,83.3808987 181.203132,83.4505443 181.062728,83.4505443 C180.843217,83.4505443 180.686573,83.3702658 180.593844,83.2113038 C180.499019,83.0528734 180.530452,82.7413291 180.686573,82.2814557 L185.668279,67.5437089 C185.824399,67.0492785 186.147642,66.8047215 186.632244,66.8047215 C187.148279,66.8047215 187.487238,67.0492785 187.643359,67.5437089 L192.625065,82.3059114 C192.672739,82.432443 192.712555,82.558443 192.741893,82.6876329 C192.773327,82.8136329 192.781185,82.9375063 192.765468,83.0555316 C192.749228,83.1762152 192.704173,83.2708481 192.625065,83.3431519 C192.545957,83.4127975 192.420746,83.4505443 192.248909,83.4505443 C191.920428,83.4505443 191.700392,83.2033291 191.591946,82.711557 L190.204675,78.5838608 L183.083387,78.5838608 Z" id="Fill-33" fill="#FFFFFF"></path>
                    <path d="M203.106608,83.6629367 C201.93099,83.6629367 200.871677,83.4694177 199.923953,83.0797215 C198.975182,82.6900253 198.167861,82.1259494 197.50304,81.386962 C196.835599,80.6479747 196.322183,79.7447089 195.961744,78.6803544 C195.601829,77.616 195.42161,76.4150127 195.42161,75.0789873 C195.42161,74.0284557 195.593447,72.9912152 195.940265,71.9672658 C196.284987,70.9406582 196.766445,70.0267595 197.384116,69.223443 C198.003882,68.4222532 198.75567,67.7720506 199.640527,67.2802785 C200.524859,66.7885063 201.50978,66.5412911 202.590573,66.5412911 C204.391196,66.5412911 205.958686,67.1542785 207.290948,68.3770633 C207.556038,68.6482025 207.691203,68.9007342 207.691203,69.1399747 C207.691203,69.4435443 207.516222,69.5945316 207.172024,69.5945316 C207.047337,69.5945316 206.840923,69.4892658 206.549638,69.2824557 C206.260973,69.0783038 205.911536,68.847038 205.503422,68.5918481 C205.095833,68.3393165 204.637426,68.1080506 204.129249,67.9012405 C203.620548,67.6938987 203.083033,67.5896962 202.518799,67.5896962 C201.610891,67.5896962 200.789426,67.8177722 200.053355,68.2691392 C199.314665,68.7231646 198.684421,69.3069114 198.160003,70.0241013 C197.635585,70.7391646 197.227472,71.542481 196.93933,72.4319241 C196.648045,73.3218987 196.504498,74.2060253 196.504498,75.0789873 C196.504498,76.2565823 196.660619,77.3097722 196.973383,78.2396203 C197.286148,79.1694684 197.72779,79.9594937 198.300406,80.6128861 C198.872498,81.2630886 199.566134,81.7654937 200.381836,82.1147848 C201.19492,82.4646076 202.103352,82.6389873 203.106608,82.6389873 C204.423153,82.6389873 205.566813,82.1605063 206.53916,81.2067342 C206.835684,80.9217722 207.079295,80.7792911 207.266849,80.7792911 C207.407776,80.7792911 207.524081,80.8388354 207.619429,80.9568608 C207.712159,81.0775443 207.759833,81.2014177 207.759833,81.3274177 C207.759833,81.4863797 207.630431,81.6958481 207.373199,81.9590127 C207.113348,82.2227089 206.76915,82.480557 206.337985,82.7330886 C205.908916,82.9882785 205.410693,83.2062532 204.846459,83.3886076 C204.28275,83.5714937 203.702799,83.6629367 203.106608,83.6629367" id="Fill-35" fill="#FFFFFF"></path>
                    <path d="M221.742663,67.5438152 C221.742663,67.2561949 221.782479,67.0573595 221.862111,66.9467772 C221.9386,66.8346 222.081099,66.7803722 222.282798,66.7803722 C222.645856,66.7803722 222.825552,67.0334354 222.825552,67.5438152 L222.825552,82.6632835 C222.825552,83.1715367 222.645856,83.4267266 222.282798,83.4267266 C221.922883,83.4267266 221.742663,83.1715367 221.742663,82.6632835 L221.742663,75.3882456 L212.203605,75.3882456 L212.203605,82.6632835 C212.203605,83.1715367 212.020766,83.4267266 211.660851,83.4267266 C211.300412,83.4267266 211.120716,83.1715367 211.120716,82.6632835 L211.120716,67.5438152 C211.120716,67.0334354 211.300412,66.7803722 211.660851,66.7803722 C212.020766,66.7803722 212.203605,67.0334354 212.203605,67.5438152 L212.203605,74.3860937 L221.742663,74.3860937 L221.742663,67.5438152 Z" id="Fill-37" fill="#FFFFFF"></path>
                    <path d="M231.848627,68.1377696 L231.848627,82.6633899 C231.848627,82.9643013 231.821909,83.1684532 231.766376,83.2705291 C231.710319,83.3726051 231.559438,83.4263013 231.308493,83.4263013 C231.072741,83.4263013 230.923955,83.3726051 230.860564,83.2705291 C230.799792,83.1684532 230.767834,82.9643013 230.767834,82.6633899 L230.767834,68.1377696 L226.514341,68.1377696 C226.231438,68.1377696 226.040741,68.1000228 225.937533,68.0192127 C225.836422,67.9415924 225.786652,67.8044278 225.786652,67.6135671 C225.786652,67.2642759 226.027643,67.0893646 226.514341,67.0893646 L236.101597,67.0893646 C236.353066,67.0893646 236.535381,67.1409342 236.654829,67.2456684 C236.771133,67.3477443 236.82981,67.4790608 236.82981,67.6380228 C236.82981,67.8283519 236.752797,67.9602 236.596677,68.0330354 C236.437937,68.102681 236.273434,68.1377696 236.101597,68.1377696 L231.848627,68.1377696 Z" id="Fill-39" fill="#FFFFFF"></path>
                    <path d="M252.668796,83.6629367 C251.493178,83.6629367 250.433865,83.4694177 249.485617,83.0797215 C248.537369,82.6900253 247.730049,82.1259494 247.065228,81.386962 C246.397787,80.6479747 245.884371,79.7447089 245.523932,78.6803544 C245.164017,77.616 244.983798,76.4150127 244.983798,75.0789873 C244.983798,74.0284557 245.155635,72.9912152 245.502452,71.9672658 C245.847175,70.9406582 246.328633,70.0267595 246.94578,69.223443 C247.56607,68.4222532 248.317858,67.7720506 249.202714,67.2802785 C250.086523,66.7885063 251.071967,66.5412911 252.15276,66.5412911 C253.953383,66.5412911 255.520874,67.1542785 256.853136,68.3770633 C257.117702,68.6482025 257.252867,68.9007342 257.252867,69.1399747 C257.252867,69.4435443 257.07841,69.5945316 256.734212,69.5945316 C256.609525,69.5945316 256.403111,69.4892658 256.111302,69.2824557 C255.82316,69.0783038 255.473723,68.847038 255.06561,68.5918481 C254.658021,68.3393165 254.199613,68.1080506 253.690913,67.9012405 C253.182736,67.6938987 252.645221,67.5896962 252.080987,67.5896962 C251.173079,67.5896962 250.351613,67.8177722 249.615543,68.2691392 C248.876852,68.7231646 248.246608,69.3069114 247.72219,70.0241013 C247.197773,70.7391646 246.789659,71.542481 246.501518,72.4319241 C246.209709,73.3218987 246.066686,74.2060253 246.066686,75.0789873 C246.066686,76.2565823 246.222806,77.3097722 246.535571,78.2396203 C246.848336,79.1694684 247.289978,79.9594937 247.86207,80.6128861 C248.434162,81.2630886 249.128321,81.7654937 249.944024,82.1147848 C250.757107,82.4646076 251.665539,82.6389873 252.668796,82.6389873 C253.985341,82.6389873 255.129001,82.1605063 256.101348,81.2067342 C256.397872,80.9217722 256.641482,80.7792911 256.829036,80.7792911 C256.969964,80.7792911 257.086268,80.8388354 257.181617,80.9568608 C257.274346,81.0775443 257.322021,81.2014177 257.322021,81.3274177 C257.322021,81.4863797 257.192095,81.6958481 256.935387,81.9590127 C256.675536,82.2227089 256.331337,82.480557 255.899649,82.7330886 C255.471104,82.9882785 254.972881,83.2062532 254.408647,83.3886076 C253.844937,83.5714937 253.264987,83.6629367 252.668796,83.6629367" id="Fill-41" fill="#FFFFFF"></path>
                    <path d="M267.171015,82.1848025 C267.623659,82.1848025 267.851553,82.3512076 267.851553,82.6872076 C267.851553,83.0205494 267.623659,83.1874861 267.171015,83.1874861 L261.365747,83.1874861 C260.753839,83.1874861 260.449457,82.9317646 260.449457,82.424043 L260.449457,67.4709797 C260.449457,67.0089797 260.627057,66.7803722 260.989592,66.7803722 C261.35003,66.7803722 261.529726,67.0089797 261.529726,67.4709797 L261.529726,82.1848025 L267.171015,82.1848025 Z" id="Fill-43" fill="#FFFFFF"></path>
                    <path d="M270.976422,67.5438152 C270.976422,67.0334354 271.154022,66.7803722 271.516556,66.7803722 C271.876995,66.7803722 272.057215,67.0334354 272.057215,67.5438152 L272.057215,76.3180937 C272.057215,77.2240177 272.115367,78.0571063 272.231672,78.812043 C272.350595,79.5675114 272.583728,80.2150557 272.938404,80.7552076 C273.290985,81.2953595 273.786064,81.711638 274.42993,82.0077646 C275.073272,82.3001696 275.918312,82.4484987 276.967148,82.4484987 C278.534638,82.4484987 279.728592,82.0667772 280.552153,81.3033342 C281.373618,80.5404228 281.786447,79.460119 281.786447,78.0597646 L281.786447,67.5438152 C281.786447,67.0334354 281.966666,66.7803722 282.326581,66.7803722 C282.68702,66.7803722 282.866716,67.0334354 282.866716,67.5438152 L282.866716,78.1081443 C282.866716,78.9194354 282.726836,79.6589544 282.44341,80.3251063 C282.162602,80.9944481 281.762872,81.5664987 281.246312,82.0423215 C280.727133,82.5208025 280.104748,82.8892329 279.376535,83.1523975 C278.648847,83.4129038 277.838383,83.5447519 276.945668,83.5447519 C276.050857,83.5447519 275.23725,83.4102456 274.501179,83.1385747 C273.764585,82.8700937 273.131721,82.4963468 272.607303,82.0183975 C272.08341,81.5425747 271.681059,80.9699924 271.397633,80.3011823 C271.116825,79.6344987 270.976422,78.9034861 270.976422,78.1081443 L270.976422,67.5438152 Z" id="Fill-45" fill="#FFFFFF"></path>
                    <path d="M286.860515,82.1848025 L290.59745,82.1848025 C292.069592,82.1848025 293.147765,81.9024987 293.828303,81.3384228 C294.511461,80.7738152 294.85042,79.8950051 294.85042,78.7046506 C294.85042,77.495157 294.431829,76.5977392 293.594646,76.0092076 C292.755368,75.4206759 291.553032,75.1277392 289.988161,75.1277392 L286.860515,75.1277392 L286.860515,82.1848025 Z M286.860515,74.1250557 L289.988161,74.1250557 C291.113485,74.1250557 291.993103,73.8672076 292.617584,73.3483215 C293.245733,72.8326253 293.557974,72.0989544 293.557974,71.1446506 C293.557974,70.1908785 293.256211,69.4439165 292.655305,68.9011063 C292.051255,68.3609544 291.16116,68.0919418 289.988161,68.0919418 L286.860515,68.0919418 L286.860515,74.1250557 Z M292.101549,74.555157 C293.324841,74.7460177 294.26785,75.1814354 294.935291,75.8667266 C295.600112,76.5493595 295.933308,77.4388025 295.933308,78.5382456 C295.933308,79.9837899 295.52048,81.1209797 294.699538,81.9482203 C293.875977,82.7733342 292.752749,83.1874861 291.325138,83.1874861 L286.579708,83.1874861 C286.047432,83.1874861 285.779722,82.9104987 285.779722,82.3512076 L285.779722,67.9255367 C285.779722,67.3689038 286.047432,67.0892582 286.579708,67.0892582 L289.988161,67.0892582 C291.553032,67.0892582 292.721315,67.439081 293.48882,68.1376633 C294.256848,68.8389038 294.641386,69.8628532 294.641386,71.2148278 C294.641386,71.9777392 294.416112,72.6710051 293.970802,73.2893089 C293.523921,73.9102709 292.901011,74.3318658 292.101549,74.555157 Z" id="Fill-47" fill="#FFFFFF"></path>
                    <path d="M236.637622,34.0927461 L239.462414,24.5028532 L237.28324,24.5028532 C236.614227,24.5028532 236.071473,23.9520684 236.071473,23.273157 C236.071473,22.5937139 236.614227,22.0429291 237.28324,22.0429291 L241.615841,22.0429291 C241.75408,22.0429291 241.886892,22.0664089 242.010625,22.1096532 C242.036803,22.1163963 242.062957,22.1237471 242.089075,22.1317139 C243.064565,22.4289038 243.618321,23.4725241 243.32494,24.4629797 L240.687631,33.4174861 L242.067438,33.4174861 C242.205831,33.4174861 242.338808,33.4409957 242.462694,33.4842963 C242.488539,33.4909726 242.514362,33.4982417 242.540147,33.5061114 C243.516685,33.8033013 244.069917,34.8469215 243.777061,35.8373772 L239.581483,50.0104101 L256.010086,50.0104101 C256.679622,50.0104101 257.222376,50.5611949 257.222376,51.2401063 C257.222376,51.9195494 256.679622,52.4703342 256.010086,52.4703342 L237.848328,52.4703342 C237.556261,52.5327532 237.245102,52.5239295 236.939199,52.4305671 C235.963184,52.1333772 235.409429,51.089757 235.702809,50.0993013 L239.913008,35.8768785 L237.719643,35.8768785 C237.050107,35.8768785 236.507877,35.3266253 236.507877,34.6471823 C236.507877,34.4476786 236.554627,34.2593133 236.637622,34.0927461 Z M248.14974,45.2980101 L248.14974,35.8768785 L245.692154,35.8768785 C245.022618,35.8768785 244.480388,35.3266253 244.480388,34.6471823 C244.480388,33.9677392 245.022618,33.4174861 245.692154,33.4174861 L248.14974,33.4174861 L248.14974,25.3471421 L245.623053,25.8075114 C244.963994,25.9271316 244.334798,25.4816127 244.216922,24.8128025 C244.099046,24.1439924 244.538069,23.5054861 245.197127,23.3858658 L249.494728,22.6027884 C249.710994,22.522405 249.944322,22.4779421 250.187694,22.4765212 L254.776001,21.6404734 C255.43506,21.5208532 256.06478,21.9663722 256.182656,22.6351823 C256.300008,23.3039924 255.861509,23.9424987 255.202451,24.062119 L252.249209,24.6002077 L252.249209,33.4174861 L254.707319,33.4174861 C255.376331,33.4174861 255.919085,33.9677392 255.919085,34.6471823 C255.919085,35.3266253 255.376331,35.8768785 254.707319,35.8768785 L252.249209,35.8768785 L252.249209,45.2980101 L255.840973,45.2980101 C256.510509,45.2980101 257.052739,45.8487949 257.052739,46.528238 C257.052739,47.2071494 256.510509,47.7579342 255.840973,47.7579342 L244.557872,47.7579342 C243.888859,47.7579342 243.346105,47.2071494 243.346105,46.528238 C243.346105,45.8487949 243.888859,45.2980101 244.557872,45.2980101 L248.14974,45.2980101 Z M231.390273,50.2253544 L231.390273,35.8768785 L225.638547,35.8768785 L225.638547,50.7833165 C225.638547,51.8333165 224.799793,52.6850127 223.764579,52.6850127 C222.729365,52.6850127 221.890611,51.8333165 221.890611,50.7833165 L221.890611,35.8768785 L220.261825,35.8768785 C219.592813,35.8768785 219.050059,35.3266253 219.050059,34.6471823 C219.050059,33.9677392 219.592813,33.4174861 220.261825,33.4174861 L221.890611,33.4174861 L221.890611,23.9394684 C221.890611,22.8889367 222.729365,22.0377722 223.764579,22.0377722 C223.829346,22.0377722 223.893345,22.0411038 223.956417,22.0476076 L226.982021,22.0476076 L226.982021,20.9586911 C226.982021,20.1000835 227.668321,19.4041595 228.51441,19.4041595 C229.360498,19.4041595 230.046799,20.1000835 230.046799,20.9586911 L230.046799,22.0476076 L233.15548,22.0476076 C233.216196,22.0476076 233.275864,22.0521325 233.334177,22.0608684 C234.336968,22.0981758 235.138209,22.9344956 235.138209,23.9612658 L235.138209,50.7833165 C235.138209,51.8333165 234.299455,52.6850127 233.264241,52.6850127 C233.253668,52.6850127 233.243116,52.6849238 233.232584,52.6847468 L230.179973,52.6847468 C229.510961,52.6847468 228.968207,52.1344937 228.968207,51.4550506 C228.968207,50.7756076 229.510961,50.2253544 230.179973,50.2253544 L231.390273,50.2253544 Z M231.390273,33.4174861 L231.390273,24.507 L230.046799,24.507 L230.046799,30.3991215 C230.046799,31.2571975 229.360498,31.9536532 228.51441,31.9536532 C227.668321,31.9536532 226.982021,31.2571975 226.982021,30.3991215 L226.982021,24.507 L225.638547,24.507 L225.638547,33.4174861 L231.390273,33.4174861 Z M290.652089,52.4701747 L266.468109,52.4701747 C266.057893,52.515567 265.630493,52.4467772 265.233027,52.2475747 C264.121324,51.6909418 263.665012,50.3246127 264.214053,49.1964608 L268.826425,39.857362 L264.097382,39.857362 C263.346642,39.857362 262.738401,39.2401215 262.738401,38.4788051 C262.738401,37.7174886 263.346642,37.1002481 264.097382,37.1002481 L293.023131,37.1002481 C293.772823,37.1002481 294.381063,37.7174886 294.381063,38.4788051 C294.381063,39.2401215 293.772823,39.857362 293.023131,39.857362 L273.751,39.857362 C273.714118,40.0577603 273.649907,40.2564312 273.556651,40.4482329 L268.980735,49.7130608 L288.145791,49.7130608 L286.293558,45.930562 C286.208727,45.7562557 286.147897,45.5762636 286.109778,45.3944506 L282.656739,45.3944506 C281.905999,45.3944506 281.297759,44.7772101 281.297759,44.0158937 C281.297759,43.2545772 281.905999,42.6373367 282.656739,42.6373367 L288.400187,42.6373367 C288.546614,42.6373367 288.687633,42.6608507 288.819776,42.7043605 C289.449575,42.8547003 290.010761,43.2787382 290.319681,43.9134987 L292.906145,49.1964608 C293.455186,50.3246127 292.998874,51.6909418 291.887172,52.2475747 C291.489706,52.4467772 291.062305,52.515567 290.652089,52.4701747 Z M271.452862,20.952127 C271.466448,20.9517193 271.480084,20.9515139 271.493767,20.9515139 L285.700409,20.9515139 C285.714457,20.9513705 285.728503,20.9513705 285.742546,20.9515139 L285.836408,20.9515139 C286.000054,20.9515139 286.156945,20.9808832 286.30224,21.0347107 C286.698311,21.1507012 287.064545,21.3868436 287.343388,21.7370203 L295.409257,31.8154253 C296.132755,32.7240076 295.992875,34.0552481 295.098064,34.788919 C294.203254,35.5225899 292.891424,35.3817038 292.167926,34.4731215 L284.102581,24.3947165 C283.935142,24.1844425 283.813889,23.9515309 283.73751,23.7086278 L273.382623,23.7086278 C273.306282,23.9515309 273.185057,24.1844425 273.017617,24.3947165 L264.952272,34.4731215 C264.228775,35.3817038 262.916944,35.5225899 262.022134,34.788919 C261.126799,34.0552481 260.987444,32.7240076 261.710417,31.8154253 L269.77681,21.7370203 C270.200639,21.2043814 270.826839,20.935574 271.452862,20.952127 Z M186.569586,36.4080201 L187.324098,35.9126051 C188.01197,35.4607063 188.930356,35.6606051 189.375142,36.3586557 C189.819928,37.0567063 189.622944,37.988681 188.935595,38.4400481 L186.569586,39.9936303 L186.569586,50.7833165 C186.569586,51.8333165 185.730832,52.6850127 184.695618,52.6850127 C184.685045,52.6850127 184.674493,52.6849238 184.663961,52.6847468 L181.61135,52.6847468 C180.942338,52.6847468 180.399584,52.1344937 180.399584,51.4550506 C180.399584,50.7756076 180.942338,50.2253544 181.61135,50.2253544 L182.82165,50.2253544 L182.82165,42.4546212 L180.477853,43.9936177 C179.790505,44.4449848 178.872119,44.2456177 178.426809,43.5475671 C177.982023,42.8495165 178.179007,41.9175418 178.86688,41.465643 L182.82165,38.8689279 L182.82165,29.5585899 L179.753099,29.5585899 C178.989262,29.5585899 178.370019,28.9301848 178.370019,28.1550456 C178.370019,27.3799063 178.989262,26.7520329 179.753099,26.7520329 L182.82165,26.7520329 L182.82165,21.2418987 C182.82165,20.1918987 183.660404,19.3402025 184.695618,19.3402025 C185.730832,19.3402025 186.569586,20.1918987 186.569586,21.2418987 L186.569586,26.7520329 L187.909601,26.7520329 C188.673439,26.7520329 189.292681,27.3799063 189.292681,28.1550456 C189.292681,28.9301848 188.673439,29.5585899 187.909601,29.5585899 L186.569586,29.5585899 L186.569586,36.4080201 Z M190.983444,24.690722 L189.866816,25.3445544 C189.220331,25.7236177 188.392579,25.4987316 188.019043,24.8421494 C187.645507,24.1855671 187.867114,23.3460987 188.514122,22.9670354 L194.446172,19.4927316 C195.093181,19.1136684 195.920409,19.3385544 196.294469,19.9951367 C196.668006,20.6522506 196.445875,21.491719 195.79939,21.8707823 L195.53463,22.0258101 L200.795189,22.0258101 L200.795189,21.2420051 C200.795189,20.1920051 201.633943,19.3403089 202.668633,19.3403089 C203.703847,19.3403089 204.542601,20.1920051 204.542601,21.2420051 L204.542601,22.0258101 L212.342856,22.0258101 C213.011868,22.0258101 213.554622,22.5760633 213.554622,23.2555063 C213.554622,23.9349494 213.011868,24.4852025 212.342856,24.4852025 L204.542601,24.4852025 L204.542601,26.1255949 L211.076919,26.1255949 C211.708735,26.1255949 212.221103,26.6450127 212.221103,27.2861772 C212.221103,27.9273418 211.708735,28.4472911 211.076919,28.4472911 L204.542601,28.4472911 L204.542601,30.0872582 L211.076919,30.0872582 C211.708735,30.0872582 212.221103,30.6066759 212.221103,31.2478405 C212.221103,31.8890051 211.708735,32.4084228 211.076919,32.4084228 L204.542601,32.4084228 L204.542601,34.0488152 L212.342856,34.0488152 C213.011868,34.0488152 213.554622,34.5990684 213.554622,35.2785114 C213.554622,35.9579544 213.011868,36.5082076 212.342856,36.5082076 L193.293029,36.5082076 C193.227334,36.5082076 193.162857,36.5029017 193.099991,36.4926886 C193.020584,36.5031027 192.939617,36.5084734 192.857412,36.5084734 C191.822198,36.5084734 190.983444,35.6567772 190.983444,34.6067772 L190.983444,24.690722 Z M206.405561,40.6398911 L200.195617,40.6398911 C200.144146,40.8657674 200.045873,41.0845077 199.898806,41.2811089 L191.71087,52.1543241 C191.154495,52.8975646 190.108279,53.0421722 189.375875,52.4770329 C188.643472,51.9118937 188.500449,50.8507291 189.057872,50.106957 L196.186818,40.6398911 L191.136578,40.6398911 C190.467565,40.6398911 189.924811,40.089638 189.924811,39.4101949 C189.924811,38.7307519 190.467565,38.1804987 191.136578,38.1804987 L211.177087,38.1804987 C211.321935,38.1804987 211.460808,38.2062119 211.589523,38.2533848 C211.8979,38.3532921 212.170311,38.569368 212.33746,38.8807291 C212.681658,39.521362 212.448001,40.3241468 211.816185,40.6729063 L205.682538,44.0426354 L211.02765,44.0426354 C211.086015,44.0370774 211.145159,44.0342354 211.204959,44.0342354 C211.264758,44.0342354 211.323902,44.0370774 211.382267,44.0426354 L211.413678,44.0426354 C211.685057,44.0426354 211.935661,44.1331768 212.13769,44.2861552 C212.700228,44.6143947 213.078927,45.2303959 213.078927,45.9359316 L213.078927,50.5655013 C213.078927,51.415565 212.529185,52.135655 211.770517,52.379066 C211.628967,52.4379008 211.473991,52.4703342 211.311519,52.4703342 L200.64085,52.4703342 C199.971313,52.4703342 199.429083,51.9195494 199.429083,51.2401063 C199.429083,50.5611949 199.971313,50.0104101 200.64085,50.0104101 L209.33099,50.0104101 L209.33099,46.5020278 L201.077253,46.5020278 C200.859548,46.5020278 200.655214,46.4437036 200.478601,46.3416194 C200.214703,46.2296956 199.985189,46.0292022 199.837878,45.7543747 C199.493679,45.1132101 199.726812,44.3104253 200.358628,43.9616658 L206.405561,40.6398911 Z M200.795189,30.0872582 L200.795189,28.4472911 L194.73138,28.4472911 L194.73138,30.0872582 L200.795189,30.0872582 Z M200.795189,32.4084228 L194.73138,32.4084228 L194.73138,34.0488152 L200.795189,34.0488152 L200.795189,32.4084228 Z M194.73138,26.1255949 L200.795189,26.1255949 L200.795189,24.4852025 L194.73138,24.4852025 L194.73138,26.1255949 Z M270.029955,31.2745823 C270.029955,30.5127342 270.638196,29.8960253 271.388936,29.8960253 L285.731577,29.8960253 C286.481269,29.8960253 287.089509,30.5127342 287.089509,31.2745823 C287.089509,32.0358987 286.481269,32.6531392 285.731577,32.6531392 L271.388936,32.6531392 C270.638196,32.6531392 270.029955,32.0358987 270.029955,31.2745823 Z M228.51441,47.0666354 C227.668321,47.0666354 226.982021,46.3701797 226.982021,45.5115722 L226.982021,38.8798253 C226.982021,38.0206861 227.668321,37.324762 228.51441,37.324762 C229.360498,37.324762 230.046799,38.0206861 230.046799,38.8798253 L230.046799,45.5115722 C230.046799,46.3701797 229.360498,47.0666354 228.51441,47.0666354 Z" id="Combined-Shape" fill="#FFFFFF"></path>
                </g>
            </g>
        </g>
    </g>
</svg>