<?xml version="1.0" encoding="UTF-8"?>
<svg width="85px" height="85px" viewBox="0 0 85 85" version="1.1" xmlns="http://www.w3.org/2000/svg" xmlns:xlink="http://www.w3.org/1999/xlink">
    <!-- Generator: Sketch 49.2 (51160) - http://www.bohemiancoding.com/sketch -->
    <title>11</title>
    <desc>Created with Sketch.</desc>
    <defs></defs>
    <g id="Page-1" stroke="none" stroke-width="1" fill="none" fill-rule="evenodd">
        <g id="首页" transform="translate(-149.000000, -1610.000000)">
            <g id="预定" transform="translate(149.000000, 1610.000000)">
                <g id="Group-10" transform="translate(11.000000, 7.000000)">
                    <path d="M56.8888889,7.10000005 L53.3333333,7.10000005 L53.3333333,0 L46.2222222,0 L46.2222222,7.10000005 L17.7777777,7.10000005 L17.7777777,0 L10.6666667,0 L10.6666667,7.10000005 L7.11111108,7.10000005 C3.2,7.10000005 0,10.295 0,14.2 L0,63.9 C0,67.8049999 3.2,70.9999999 7.11111108,71 L56.8888889,71 C60.8,71 64,67.805 64,63.9 L64,14.2 C64,10.295 60.8,7.10000005 56.8888889,7.10000005 Z M7.11111108,63.9 L7.11111108,24.85 L56.8888889,24.85 L56.8888889,63.9 L7.11111108,63.9 Z" id="Shape" fill="#46B5D8" fill-rule="nonzero"></path>
                    <polygon id="Path" fill="#FFFFFF" points="44.4835165 32 27.2527473 49.2535211 19.8681319 41.8591549 16 45.7323943 27.2527473 57 48 35.8732395"></polygon>
                </g>
            </g>
        </g>
    </g>
</svg>