<?xml version="1.0" encoding="UTF-8"?>
<svg width="85px" height="85px" viewBox="0 0 85 85" version="1.1" xmlns="http://www.w3.org/2000/svg" xmlns:xlink="http://www.w3.org/1999/xlink">
    <!-- Generator: Sketch 49.2 (51160) - http://www.bohemiancoding.com/sketch -->
    <title>12</title>
    <desc>Created with Sketch.</desc>
    <defs></defs>
    <g id="Page-1" stroke="none" stroke-width="1" fill="none" fill-rule="evenodd">
        <g id="首页" transform="translate(-535.000000, -1685.000000)">
            <g id="优惠卷" transform="translate(535.000000, 1685.000000)">
                <g id="Group-11" transform="translate(1.000000, 15.000000)">
                    <path d="M7,6.99990977 L7,4.72414282 C7,3.55910028 7.4707323,2.4794148 8.41032147,1.48824439 C9.34991064,0.497164218 10.3662048,0 11.4560157,0 L24,0 L24,7 L7,7 L7,6.99990977 Z" id="Path" fill="#46B5D8"></path>
                    <path d="M80.8466287,26.631686 C80.3689446,26.7510003 80.0258519,27.0067398 79.8170732,27.3969623 C79.6052419,27.7804328 79.5042289,28.2144038 79.5042289,28.6955455 C79.5042289,29.1730801 79.6052419,29.6341511 79.8171657,30.0815334 C80.0258519,30.5356676 80.3689446,30.848567 80.8467212,31.0267985 C81.3244979,31.2050299 81.7012615,31.5651001 81.9704445,32.1032167 C82.2396275,32.6380961 82.3876319,33.2066425 82.4179728,33.8054337 C82.4447986,34.4041324 82.374219,34.9726788 82.1924511,35.5074657 C82.0141983,36.049282 81.7451078,36.4360822 81.3885098,36.6749882 C80.1873617,37.3913363 79.591829,38.1987888 79.591829,39.0969755 C79.591829,39.9950698 80.1873617,40.8900193 81.3885098,41.7847839 C81.6238367,41.9664376 81.8493584,42.2961704 82.0579521,42.7737975 C82.2665458,43.2516096 82.3743115,43.7291441 82.3743115,44.2069562 C82.3743115,44.6845832 82.2530404,45.1050504 82.0141983,45.4650281 C81.7718411,45.821676 81.3580764,46 80.7558835,46 L75.9178052,46 C75.5543619,46 75.3627888,45.9696627 75.3324479,45.9125029 C75.3020145,45.8517358 75.3490984,45.7475902 75.4670394,45.5996035 C75.5847028,45.4447724 75.7327997,45.2832819 75.9178052,45.104958 C76.096243,44.926819 76.2443399,44.714828 76.3653335,44.4760145 C76.6648573,43.6383173 76.6648573,42.9217842 76.3653335,42.3262302 C76.0659021,41.727624 75.5544544,41.2196597 74.8379282,40.7991925 C74.3600591,40.5602865 74.0169664,40.1867126 73.8083727,39.6788407 C73.5998715,39.1708764 73.5089413,38.6460786 73.5391897,38.1078694 C73.5660155,37.57299 73.6737812,37.0919408 73.8521265,36.6748033 C74.0338019,36.2541511 74.2995623,35.9581777 74.6594904,35.776524 C75.1372671,35.5982 75.4972877,35.2719819 75.7327997,34.7909326 C75.9750644,34.3131205 76.096243,33.8052487 76.096243,33.2703693 C76.096243,32.7286455 76.0053128,32.2344624 75.82706,31.7868951 C75.6486222,31.3394204 75.3761092,31.0266135 75.016181,30.848382 C74.5384968,30.6060538 74.1651558,30.2494058 73.8992104,29.7684491 C73.6300274,29.2940592 73.4954359,28.7525204 73.4954359,28.1570589 C73.4954359,27.5582678 73.6131919,26.9762176 73.8521265,26.4077637 C74.0907836,25.8392173 74.4812377,25.3767589 75.016181,25.0183536 C75.3762017,24.7778752 75.6757255,24.4498072 75.9178052,24.034427 C76.1533172,23.6138673 76.2880012,23.166485 76.3181571,22.6871006 C76.348498,22.2077162 76.2575678,21.7469226 76.0523967,21.2994479 C75.8404729,20.846886 75.4668543,20.4752545 74.9285809,20.1756739 C74.3332333,19.8763708 73.8990254,19.4459145 73.6298424,18.8772756 C73.360752,18.3087292 73.226068,17.726864 73.226068,17.1263155 C73.226068,16.530854 73.360752,15.9624001 73.6298424,15.4257634 C73.8990254,14.884132 74.2692214,14.4669945 74.7503281,14.167599 C75.7661932,13.6311472 76.3182496,12.8960233 76.4089023,11.9709214 C76.4996474,11.0441547 76.4224077,10.1930462 76.1868032,9.41768843 C76.0051278,8.81880477 75.6484372,8.28059565 75.1068337,7.80121124 C74.5684677,7.32358417 73.8820974,7.08458566 73.0478152,7.08458566 L30,7.08458566 L30,0 L80.4901232,0 C80.9073105,0 81.2671462,0.15140889 81.5667625,0.450804477 C81.8627713,0.746777871 82.0579521,1.10518315 82.1486048,1.52555787 C82.239535,1.94269537 82.2059565,2.37666636 82.0579521,2.82414113 C81.9064326,3.27152342 81.6238367,3.64824205 81.2033193,3.94763764 C80.8466287,4.24361104 80.5337844,4.63216861 80.264694,5.11155302 C79.995511,5.59093742 79.8475066,6.08206827 79.8171657,6.59345481 C79.7869173,7.09984679 79.8609195,7.60938348 80.0393573,8.11568297 C80.2209402,8.62531216 80.5473823,8.99712874 81.0250665,9.23760712 C81.684611,9.5960124 82.1757081,10.0888081 82.5088104,10.7160867 C82.8351601,11.3435503 83,11.9709214 83,12.5999574 C83,13.2273285 82.8351601,13.8093787 82.5088104,14.3476803 C82.1757081,14.884132 81.7147669,15.274447 81.1159967,15.5149253 C80.4564522,15.7521665 79.9820056,16.096883 79.6826667,16.5443578 C79.3831429,16.9934049 79.218303,17.4846283 79.1879621,18.0228374 C79.1577137,18.5628039 79.2787998,19.0841795 79.5479827,19.5939012 C79.8171657,20.1002007 80.2512811,20.5340792 80.8467212,20.8922995 C81.445584,21.253942 81.8796068,21.7299967 82.1486973,22.3287878 C82.4179728,22.9243418 82.5390588,23.5247053 82.5088104,24.1200743 C82.4751395,24.7190505 82.3271351,25.2740006 82.0579521,25.7803001 C81.7920067,26.2902067 81.3884173,26.5727688 80.8466287,26.631686 Z" id="Path" fill="#46B5D8"></path>
                    <path d="M0,15.5010212 C0,13.8802711 0.271360298,12.7254704 0.812215876,12.0332769 C1.35493647,11.3462824 2.55908614,11 4.42783541,11 L16,11 L16,56 L11.0297237,56 C9.70369507,56 8.39445157,55.9862601 7.09546567,55.9561809 C5.79983681,55.9289796 4.9112484,55.9120833 4.42792866,55.9120833 C2.80331041,55.9730772 1.65688309,55.7028284 0.993868749,55.1016154 C0.330854412,54.5041158 0.000186501923,53.3627764 0.000186501923,51.681218 L0.000186501923,38.7219013 C0.000186501923,38.0635006 0.103601818,37.5638513 0.315561254,37.2362292 C0.52752069,36.9054506 0.965054202,36.6791137 1.62984031,36.5610249 C1.86893577,36.5610249 2.19783192,36.4731082 2.62184404,36.2942111 C3.04240587,36.1117862 3.46632475,35.8247339 3.88697983,35.4363963 C4.31080546,35.0483372 4.67215293,34.534948 4.97391304,33.9069979 C5.27240937,33.278862 5.42496794,32.5088711 5.42496794,31.6106721 C5.42496794,30.2297203 5.0468353,29.1526242 4.29215526,28.3726997 C3.53915375,27.5893402 2.74390955,27.1401943 1.89933559,27.0220127 C1.23632125,26.9022528 0.753001515,26.7080376 0.451148152,26.4345395 C0.14929479,26.1643836 3.9755276e-15,25.7018691 3.9755276e-15,25.0417045 L3.9755276e-15,15.5010212 Z" id="Path" fill="#46B5D8"></path>
                    <path d="M69.3146519,25.1311066 C68.5890356,25.3117676 68.0302567,25.6561004 67.6350366,26.1643836 C67.2430952,26.6774942 67.0284829,27.2009098 67.0012231,27.7412217 C66.9706846,28.2815337 67.1205666,28.8217528 67.4545225,29.3584441 C67.7850123,29.9022838 68.2858056,30.2905286 68.9502512,30.5335761 C69.5567113,30.7700322 70.0132893,31.131447 70.3166131,31.6106721 C70.6161897,32.0902686 70.7833082,32.6000371 70.8139403,33.143784 C70.8411064,33.680661 70.7389993,34.1905224 70.4969398,34.670026 C70.2516954,35.1528718 69.8905735,35.510666 69.4033633,35.7538992 C67.8939578,36.4730153 67.1068899,37.3408566 67.042347,38.3605793 C66.9842677,39.3802092 67.5600019,40.1941121 68.7696434,40.7917045 C69.3148392,41.0314099 69.7541808,41.4062861 70.0881367,41.9193968 C70.4188139,42.4258232 70.6026067,42.9662279 70.6333325,43.5367119 C70.6604986,44.1073816 70.5550191,44.613808 70.3165194,45.0663888 C70.0710876,45.5189697 69.6757738,45.8329448 69.1341377,46.0118419 C68.4084278,46.190739 67.8462766,46.5217033 67.4545225,47.0012069 C67.0592087,47.4808034 66.8480624,47.9938212 66.8174303,48.5306981 C66.7867982,49.0710101 66.9365865,49.6114148 67.2740083,50.1516339 C67.6044045,50.6919459 68.1359236,51.1442482 68.8617272,51.5024138 C69.345565,51.7421192 69.6931039,52.1168097 69.9043439,52.6268567 C70.1155838,53.1365324 70.1938035,53.6330253 70.1326329,54.1123432 C70.071275,54.5919397 69.9042502,55.0274385 69.631746,55.4157761 C69.3591481,55.8075487 68.9843494,56 68.4971392,56 L21,56 L21,11 L69.042054,11 C69.5258918,11 69.9039692,11.197743 70.1800331,11.5842239 C70.452631,11.9741397 70.602513,12.4114953 70.6333325,12.8909989 C70.6604986,13.3720808 70.5549254,13.8481494 70.3164257,14.329417 C70.0709939,14.8105917 69.6756801,15.1414631 69.134044,15.3221241 C68.5888482,15.501114 68.1494129,15.7999567 67.8155508,16.2204159 C67.4815949,16.6391112 67.2873104,17.1067317 67.2260461,17.6148292 C67.1646882,18.1263616 67.287404,18.6210905 67.5907278,19.1005942 C67.8938641,19.5817689 68.4083341,19.941327 69.1341377,20.1793613 C69.6758675,20.4224088 70.1153965,20.7821526 70.4527247,21.2615634 C70.7832145,21.7393959 70.9637286,22.2372813 70.9944544,22.7455644 C71.0284589,23.2570969 70.9058367,23.7349294 70.6333325,24.1874175 C70.3605472,24.6363777 69.9210182,24.9521167 69.3146519,25.1311066 Z" id="Path" fill="#46B5D8"></path>
                    <path d="M46.8247415,31.8233598 C46.5316374,31.8233598 46.2253133,31.7929827 45.9059503,31.7317625 C45.5797962,31.6741764 45.510708,31.4947091 45.6853752,31.1928945 C45.7445031,31.0709201 46.0179582,30.6505788 46.5184174,29.925348 C47.0157979,29.2035649 47.5723968,28.4341661 48.1849544,27.6242335 C48.8006812,26.8074054 49.3705002,26.0415475 49.8973993,25.319578 C50.424389,24.594254 50.7470118,24.1435356 50.86237,23.9622978 C51.1553835,23.4826932 50.9808974,22.9116776 50.3353803,22.2474806 C50.2201126,22.1270902 49.986227,21.9457593 49.6338139,21.7068422 C49.2846606,21.4645705 48.9586876,21.2832395 48.6688432,21.1611719 C48.2012531,20.9815182 47.8653198,20.9527251 47.6578742,21.0714382 C47.4570386,21.1934127 47.2066732,21.4646637 46.9135691,21.8864959 C46.7950417,22.0678269 46.5052879,22.5016795 46.0376072,23.1947627 C45.5667573,23.88943 45.0693768,24.6250039 44.542387,25.4094049 C44.0153973,26.1906377 43.5346777,26.8990027 43.0966967,27.5292816 C42.6552749,28.166456 42.4082598,28.5393679 42.3457817,28.6612492 C42.2338643,28.9018436 42.0131081,28.9900863 41.6903948,28.9324071 C41.367591,28.8747278 41.1502756,28.7188353 41.0317482,28.4815955 C40.9741596,28.3595278 40.7106648,28.0139181 40.2430746,27.4394548 C39.7736735,26.8701164 39.2748442,26.221108 38.7493938,25.4991386 C38.2224041,24.7772623 37.7103548,24.0976904 37.2146947,23.465641 C36.7157749,22.8336848 36.3783023,22.3963845 36.2020958,22.1575606 C35.6768265,21.1339629 35.1202275,20.8001872 34.5372791,21.1610787 C34.1255571,21.4051208 33.7616445,21.6609969 33.4372108,21.9320616 C33.1161273,22.2032194 32.8098032,22.4286252 32.5166992,22.608279 C31.9288612,23.0285271 31.8448326,23.5741973 32.2532043,24.2333625 C33.2478748,25.4414593 34.1255571,26.5515292 34.8879718,27.5784814 C35.531859,28.4173003 36.1443261,29.2340352 36.7322547,30.0134976 C37.3152031,30.7999486 37.6658052,31.2505738 37.7844231,31.3727346 C37.9014112,31.6097881 37.7844231,31.7318557 37.4337305,31.7318557 L36.3783023,31.7318557 C36.0885485,31.7318557 35.6636065,31.7455534 35.1070075,31.7793782 C34.5504086,31.8098485 34.0366389,31.7930759 33.5690487,31.7318557 C33.0997381,31.7318557 32.7226055,31.8538302 32.4295919,32.0945177 C32.134858,32.3317575 32.0474791,32.6368334 32.1660971,32.9961409 C32.2236856,33.2400898 32.2532949,33.599304 32.2532949,34.0839405 L32.2532949,35.1651242 C32.2532949,35.4667524 32.3405832,35.6327084 32.5167897,35.6599174 C32.6913664,35.6936491 32.8970916,35.7074399 33.1309772,35.7074399 L38.2224946,35.7074399 C38.9239705,35.7074399 39.2746631,35.8598847 39.2746631,36.1581583 L39.2746631,37.8764233 C39.2746631,38.1780514 39.216984,38.3271417 39.0984566,38.3271417 L33.2180844,38.3271417 C32.8673918,38.2662942 32.6335062,38.357612 32.5166086,38.5983927 C32.3979907,38.8390802 32.3107929,39.1100517 32.2531138,39.4116799 C32.1955252,39.7098604 32.1955252,39.9978841 32.2531138,40.2691351 C32.3107929,40.540293 32.3404021,40.767376 32.3404021,40.9469366 C32.3404021,41.7298467 32.7225149,42.1196244 33.4814888,42.1196244 L38.7492127,42.1196244 C39.0424073,42.1196244 39.2168934,42.1636061 39.274482,42.2584647 C39.3354208,42.3466143 39.3616798,42.5431339 39.3616798,42.8448552 C39.4226186,43.1430357 39.4358386,43.6887059 39.4060483,44.4680751 C39.3782501,45.2544329 39.3616798,45.7628306 39.3616798,46.0069659 C39.3616798,46.6711629 39.7436115,47 40.5062073,47 L43.3137404,47 C43.7847714,47 44.0153068,46.8507234 44.0153068,46.5490952 L44.0153068,42.9362662 C44.0153068,42.3331962 44.2788016,42.0282135 44.8056103,42.0282135 L45.5960948,42.0282135 C46.0044666,42.0282135 46.462187,42.0145158 46.9563078,41.9840455 C47.4567669,41.9570229 47.9375771,41.9400639 48.4052578,41.9400639 L49.5479744,41.9400639 C50.3648084,41.9400639 50.7732707,41.6417902 50.7732707,41.0384407 L50.7732707,39.0492043 C50.7732707,38.5068886 50.4834264,38.2358239 49.8972182,38.2358239 L44.8057008,38.2358239 C44.2227524,38.3577052 43.9296483,38.2358239 43.9296483,37.8766096 C43.9296483,37.6967695 43.9164283,37.4697797 43.8834688,37.198715 C43.8553808,36.9444155 43.8411124,36.6887005 43.8407301,36.4327639 C43.8407301,36.1886287 43.9428683,36.0091613 44.1471448,35.8870937 C44.3544998,35.7683806 44.5719963,35.7075331 44.8057008,35.7075331 L49.9861364,35.7075331 C50.5723446,35.7075331 50.8621889,35.4974091 50.8621889,35.0736201 L50.8621889,32.9047299 C50.8621889,32.6674901 50.7600507,32.4267094 50.5557743,32.1828537 C50.3484192,31.9456138 50.1046638,31.8235462 49.8083,31.8235462 L46.8247415,31.8235462 L46.8247415,31.8233598 Z" id="Path" fill="#FFFFFF"></path>
                </g>
            </g>
        </g>
    </g>
</svg>