<?xml version="1.0" encoding="UTF-8"?>
<svg width="85px" height="85px" viewBox="0 0 85 85" version="1.1" xmlns="http://www.w3.org/2000/svg" xmlns:xlink="http://www.w3.org/1999/xlink">
    <!-- Generator: Sketch 49.2 (51160) - http://www.bohemiancoding.com/sketch -->
    <title>13</title>
    <desc>Created with Sketch.</desc>
    <defs></defs>
    <g id="Page-1" stroke="none" stroke-width="1" fill="none" fill-rule="evenodd">
        <g id="首页" transform="translate(-917.000000, -1681.000000)">
            <g id="船舶交易" transform="translate(917.000000, 1681.000000)">
                <g id="Group-12" transform="translate(5.000000, 6.000000)">
                    <path d="M63.7166811,61.6487551 L41.2250156,61.6487551 L41.2250156,69.0447101 L63.7166811,69.0447101 L63.7166811,73.9630202 L74.9625139,65.3467326 L63.7166811,56.730445 L63.7166811,61.6487551 Z M52.5083345,46.8568451 L52.5083345,41.938535 L41.2625017,50.5548226 L52.5083345,59.1711102 L52.5083345,54.2528001 L75,54.2528001 L75,46.8568451 L52.5083345,46.8568451 Z" id="Shape" fill="#FFFFFF" fill-rule="nonzero"></path>
                    <path d="M35.0023215,50.5548226 L41.2625017,57.9877574 L36.2768492,57.9877574 L36.2768492,74 L13.7851836,74 L8.7245589,55.9538698 L1.26482316,40.7182024 C-1.73406557,36.9462654 1.18985095,33.9509036 3.92633692,32.7675508 L10.0365727,29.4023912 L10.0365727,24.0033441 C10.0365727,20.6012048 11.4235588,17.3469846 13.8226698,14.9063194 C14.4599336,14.2776632 15.0971975,13.6120273 15.7344613,12.9833711 C18.5084334,10.209888 22.2945304,8.65673742 26.2305719,8.65673742 L28.7796273,8.65673742 L28.7796273,2.48111498 C28.7796273,0.00347004606 31.6660577,0.0404498211 31.8160022,0.00347004606 L43.774071,0.00347004606 C43.774071,-0.033509729 46.2856403,0.188368922 46.2856403,2.48111498 L46.2856403,8.65673742 L49.0596124,8.65673742 C52.9206817,8.65673742 56.6318065,10.1359284 59.4057786,12.835452 C60.0055563,13.3901486 60.6053341,14.0188048 61.2051118,14.6104812 C63.6417089,17.0511464 64.9912088,20.3053666 64.9912088,23.7444857 L64.9912088,29.6242699 L64.6163477,29.4763508 L70.5766391,32.7675508 C73.3131251,33.9509036 76.7618471,36.9462654 73.7254723,40.7182024 L73.0882084,41.938535 L54.9824177,41.938535 L54.9824177,34.54258 L35.0023215,50.5548226 Z M15.0222252,27.1096452 L30.8038772,19.8246295 C32.7156688,18.9371149 34.8148909,18.4933576 36.914113,18.4933576 L38.0012102,18.4933576 C40.1004323,18.4933576 42.1996544,18.9371149 44.111446,19.8246295 L59.9680702,27.1096452 L59.9680702,24.7059598 C59.9680702,22.3392542 58.9184591,20.0465081 57.0816398,18.4933576 C56.4068898,17.9016812 55.5821954,17.1990655 54.7949871,16.5334295 C52.5083345,14.6104812 49.6219041,13.5750475 46.6230153,13.5380677 L37.251488,13.4641082 L28.0673913,13.5380677 C24.9935303,13.5380677 21.9946416,14.6844408 19.7079889,16.7183284 C18.9957528,17.3469846 18.3210029,17.9756407 17.7212251,18.4933576 C15.9968641,20.0465081 15.0222252,22.2652946 15.0222252,24.5580407 L15.0222252,27.1096452 Z" id="Combined-Shape" fill="#46B5D8"></path>
                </g>
            </g>
        </g>
    </g>
</svg>