<?xml version="1.0" encoding="UTF-8"?>
<svg width="85px" height="85px" viewBox="0 0 85 85" version="1.1" xmlns="http://www.w3.org/2000/svg" xmlns:xlink="http://www.w3.org/1999/xlink">
    <!-- Generator: Sketch 49.2 (51160) - http://www.bohemiancoding.com/sketch -->
    <title>14</title>
    <desc>Created with Sketch.</desc>
    <defs></defs>
    <g id="Page-1" stroke="none" stroke-width="1" fill="none" fill-rule="evenodd">
        <g id="首页" transform="translate(-1303.000000, -1684.000000)" fill-rule="nonzero">
            <g id="客服" transform="translate(1303.000000, 1684.000000)">
                <g id="Group-23" transform="translate(7.000000, 8.000000)">
                    <path d="M69.4966481,23.974559 C67.9586411,22.00048 65.839791,20.6480259 63.5245995,20.1524061 C59.597773,7.89631586 49.0035224,0 36.478582,0 C24.0190888,0 13.4493808,7.83751348 9.48164981,19.9927997 C6.93739348,20.2616105 4.58947849,21.5300612 2.83058743,23.5713428 C1.00624925,25.6966279 0,28.4687387 0,31.375255 L0,40.3636145 C0,46.6722669 4.71219178,51.8132726 10.5042609,51.8132726 L15.9118282,51.8132726 C17.687081,51.8132726 19.1350983,50.326413 19.1350983,48.5035401 L19.1350983,23.2269291 C19.1350983,21.6056642 17.9897739,20.2532101 16.4926713,19.975999 C18.1370299,15.9606384 20.8039996,12.6173047 24.2317919,10.2820113 C27.7577549,7.87951517 31.9954551,6.61106442 36.478582,6.61106442 C40.953528,6.61106442 45.1994092,7.87951517 48.7417339,10.2820113 C52.1613454,12.600504 54.8610386,15.9270371 56.5626634,19.925597 L56.0881718,19.925597 C54.312919,19.925597 52.8649017,21.4124565 52.8649017,23.2353294 L52.8649017,48.5119405 C52.8649017,49.1923677 53.0776048,49.8475939 53.4621066,50.4104164 C53.0039768,50.9564383 52.5540279,51.5108604 52.1204409,52.0484819 C48.9953415,55.9042362 46.0338599,59.549982 41.0353369,60.4236169 C39.9227361,58.701548 38.0247699,57.6347054 36.0040904,57.6347054 C32.6826497,57.6347054 29.9829565,60.4068162 29.9829565,63.8173527 C29.9829565,67.2278892 32.6826497,70 36.0040904,70 C37.4602886,70 38.8592205,69.4623785 39.9554596,68.4795392 C40.9617089,67.5807032 41.6489036,66.3626545 41.910692,65.0270011 C45.3139416,64.4305773 48.3817749,62.8345134 51.2859903,60.1464059 C53.9284173,57.7019081 56.2027042,54.5853834 58.2152028,51.8048722 L61.4957391,51.8048722 C67.2878082,51.8048722 72,46.6722669 72,40.3552142 L72,31.3668547 C71.9918191,28.6619465 71.1082832,26.0326413 69.4966481,23.974559 Z M12.6885581,45.1938077 L10.5042609,45.1938077 C8.27087837,45.1938077 6.44654019,43.0265211 6.44654019,40.3636145 L6.44654019,31.3668547 C6.44654019,30.9888395 6.4956255,30.6024241 6.59379621,30.1488059 C6.61015801,30.0648025 6.64288152,29.9723989 6.66742418,29.8715949 C6.77377575,29.4935797 6.89648903,29.1827673 7.03556419,28.9055562 C7.04374505,28.8887555 7.05192599,28.8635545 7.06010685,28.8467539 C7.06828771,28.8383536 7.06828771,28.8299532 7.07646865,28.8131525 C7.45278952,28.099124 7.99272813,27.5111004 8.63083744,27.1162847 C8.89262589,26.9566783 9.17077605,26.8222729 9.46528809,26.7214688 L9.53891606,26.6962678 L9.55527786,26.6878675 L9.56345872,26.6878675 C9.88251334,26.5870635 10.201568,26.5366615 10.5042609,26.5366615 L12.6885581,26.5366615 L12.6885581,45.1938077 Z M65.5534598,40.3636145 C65.5534598,43.026521 63.7291216,45.1938077 61.4957391,45.1938077 L59.3114419,45.1938077 L59.3114419,26.5366615 L61.4957391,26.5366615 C62.5592546,26.5366615 63.565504,27.0322813 64.3263266,27.9227169 C65.1280536,28.8803552 65.5616407,30.1068042 65.545279,31.375255 L65.545279,40.3636145 L65.5534598,40.3636145 Z" id="Shape" fill="#46B5D8"></path>
                    <path d="M45.9756676,43.6294766 C46.3217915,43.1666666 46.4866124,42.5688705 46.4454072,41.9325069 C46.4042019,41.2575758 46.1240065,40.6212122 45.6789901,40.1873278 C45.3411073,39.8498623 44.8796088,39.6666667 44.385146,39.6666667 C43.7341036,39.6666667 43.1077842,39.9848485 42.7204552,40.5151515 C40.7920507,42.9834711 38.781236,44.044077 36.004004,44.0440771 C33.0949153,44.0440771 31.3395729,43.1280992 29.2957939,40.5344352 C28.8919828,39.9944903 28.2656634,39.6763085 27.6146208,39.6763085 C27.1201582,39.6763085 26.6669007,39.8595041 26.3207769,40.2066115 C25.8675195,40.6501377 25.5955649,41.2672176 25.5543598,41.9421487 C25.5131546,42.5785123 25.6862165,43.1859504 26.0405813,43.668044 C28.9908753,47.5055096 31.7763482,49 36.004004,49 C40.099803,48.9807162 43.2726051,47.2741047 45.9756676,43.6294766 Z" id="Shape" fill="#FFFFFF"></path>
                </g>
            </g>
        </g>
    </g>
</svg>