<?xml version="1.0" encoding="UTF-8"?>
<svg width="85px" height="85px" viewBox="0 0 85 85" version="1.1" xmlns="http://www.w3.org/2000/svg" xmlns:xlink="http://www.w3.org/1999/xlink">
    <!-- Generator: Sketch 49.2 (51160) - http://www.bohemiancoding.com/sketch -->
    <title>15</title>
    <desc>Created with Sketch.</desc>
    <defs></defs>
    <g id="Page-1" stroke="none" stroke-width="1" fill="none" fill-rule="evenodd">
        <g id="首页" transform="translate(-1687.000000, -1684.000000)" fill-rule="nonzero">
            <g id="服务" transform="translate(1687.000000, 1684.000000)">
                <g id="Group-13" transform="translate(11.000000, 7.000000)">
                    <path d="M61.4169611,45.8281231 C59.5519435,44.5527986 56.8508834,44.7745941 55.3074205,46.3271631 L47.9759717,53.4800701 L47.9759717,53.5909679 C47.7830389,57.0842481 44.4388693,59.8012438 40.3872792,59.8012438 L32.4770318,59.8012438 C31.5766784,59.690346 30.9335689,59.0249593 31.0621908,58.2486748 C31.1265018,57.638737 31.7053004,57.139697 32.4770318,57.0287992 L40.3872792,57.0287992 C42.7024735,57.0842481 44.5674912,55.5316791 44.760424,53.535519 C44.824735,51.5393589 43.0240283,49.8758922 40.7088339,49.8204433 L27.3321555,49.8204433 L25.209894,49.1550566 C19.8077739,47.5470387 13.8268551,48.7114655 9.77526502,52.1492967 L0,60.5220794 L13.6339223,72 L17.4925795,68.6730665 L39.4869258,68.6730665 C42.4452297,68.6730665 45.2749117,67.5640887 47.2685512,65.6233774 L61.9314488,51.1512167 C63.4749117,49.5986477 63.3462898,47.2697943 61.545583,45.883572 C61.4812721,45.883572 61.4169611,45.8281231 61.4169611,45.8281231 Z" id="Shape" fill="#FFFFFF"></path>
                    <path d="M50.0579278,3.90440843 L50.0223352,3.86678802 C49.5507944,3.34312766 49.0148481,2.92373982 48.5016616,2.5489883 C43.0972836,-0.499950976 37.7640906,0.523055595 32.6477217,5.59054864 L23.150079,15.080062 C22.7153413,15.5149335 22.1497346,15.7446472 21.5147586,15.7446474 C20.9072639,15.7446474 20.2960164,15.4963048 19.8798014,15.080062 C19.4525426,14.6553 19.2130508,14.0774369 19.2146807,13.4752107 C19.2146807,12.868205 19.4508748,12.2984568 19.8801646,11.8699966 L29.3205444,2.43673208 C27.0878986,0.858130311 24.36071,0 21.5146375,0 C17.8659166,0 14.4788132,1.40586284 11.9772862,3.95823812 C9.44694626,6.48738796 8,9.96357786 8,13.5040006 C8,17.1502682 9.40675327,20.5346453 11.9611848,23.0336746 L30.9127663,41.9700005 C30.9309258,41.9881454 30.94279,42 31.0156699,42 C31.0453304,42 31.1028353,41.9813713 31.1236583,41.9652828 L50.0616807,23.0416583 C55.3144878,17.7935635 55.3123086,9.20887308 50.0579278,3.90440843 Z" id="Shape" fill="#46B5D8"></path>
                </g>
            </g>
        </g>
    </g>
</svg>