<?xml version="1.0" encoding="UTF-8"?>
<svg width="55px" height="5px" viewBox="0 0 55 5" version="1.1" xmlns="http://www.w3.org/2000/svg" xmlns:xlink="http://www.w3.org/1999/xlink">
    <!-- Generator: Sketch 49.2 (51160) - http://www.bohemiancoding.com/sketch -->
    <title>2</title>
    <desc>Created with Sketch.</desc>
    <defs></defs>
    <g id="Page-1" stroke="none" stroke-width="1" fill="none" fill-rule="evenodd">
        <g id="首页" transform="translate(-729.000000, -194.000000)" fill="#46B5D8" fill-rule="nonzero">
            <g id="Group-4" transform="translate(729.000000, 194.000000)">
                <path d="M30.6022605,0.833401337 C31.2300569,0.367417287 32.0282453,0 33.1608447,0 C35.0182482,0 35.9762774,0.948616612 36.7387904,1.69960474 C37.4035454,2.35177865 37.8923358,2.82608695 38.9285715,2.82608695 C39.9648071,2.82608695 40.4535976,2.35177865 41.1183525,1.69960474 C41.9004171,0.948616612 42.8584464,0 44.6962983,0 C46.5537018,0 47.5312826,0.988142301 48.2937957,1.77865612 C48.9585507,2.47035571 49.447341,2.96442686 50.4640251,2.96442686 C51.5980188,2.96442686 52.4582899,2.03557314 53.4554224,0.830039545 L55,2.13438736 C53.983316,3.33992095 52.6147029,5 50.464025,5 C48.5870699,5 47.6290407,4.0118577 46.846976,3.22134388 C46.1822211,2.52964429 45.6934307,2.03557314 44.6767466,2.03557314 C43.640511,2.03557314 43.1517205,2.50988144 42.4869656,3.16205535 C41.704901,3.91304348 40.7468717,4.86166009 38.9090198,4.86166009 C37.0711679,4.86166009 36.0935871,3.91304348 35.331074,3.16205535 C34.6663191,2.50988144 34.1775287,2.03557314 33.141293,2.03557314 C32.6547521,2.03557314 32.2891075,2.14872357 31.9672183,2.3425351 C30.9691453,3.52207528 29.6361395,5 27.6068822,5 C27.5673903,5 27.5283052,4.99956255 27.48962,4.9986987 C27.4513291,4.99956255 27.4126467,5 27.3735662,5 C25.3714165,5 24.0470411,3.56129699 23.0691825,2.38996093 C22.7288046,2.16730684 22.3445801,2.03557314 21.8196038,2.03557314 C20.7833681,2.03557314 20.2945777,2.50988144 19.6298227,3.16205535 C18.8477581,3.91304348 17.8897289,4.86166009 16.051877,4.86166009 C14.214025,4.86166009 13.2364442,3.91304348 12.4739312,3.16205535 C11.8091762,2.50988144 11.3203858,2.03557314 10.2841501,2.03557314 C9.26746609,2.03557314 8.77867568,2.52964429 8.11392073,3.22134388 C7.33185609,4.0118577 6.37382688,5 4.51642334,5 C2.36574557,5 0.997132442,3.33992095 0,2.13438736 L1.5445777,0.830039545 C2.54171014,2.0355731 3.40198124,2.96442686 4.53597499,2.96442686 C5.55265905,2.96442686 6.04144946,2.47035571 6.70620441,1.77865612 C7.48826905,0.988142301 8.44629826,0 10.3037018,0 C12.1611053,0 13.1191346,0.948616612 13.8816476,1.69960474 C14.5464025,2.35177865 15.0351929,2.82608695 16.0714286,2.82608695 C17.1076643,2.82608695 17.5964547,2.35177865 18.2612096,1.69960474 C19.0432743,0.948616612 20.0013035,0 21.8391554,0 C23.696559,0 24.6741398,0.988142301 25.4366528,1.77865612 C26.0776802,2.44566635 26.5550804,2.92890455 27.5,2.96255194 C28.4449196,2.92890455 28.9223199,2.44566635 29.5633473,1.77865612 C29.8640458,1.47470891 30.1907581,1.1415453 30.5846039,0.846566335 C30.5891596,0.841063237 30.5937181,0.835554286 30.5982795,0.830039545 L30.6022605,0.833401337 Z" id="Combined-Shape"></path>
            </g>
        </g>
    </g>
</svg>