<?xml version="1.0" encoding="UTF-8"?>
<svg width="55px" height="5px" viewBox="0 0 55 5" version="1.1" xmlns="http://www.w3.org/2000/svg" xmlns:xlink="http://www.w3.org/1999/xlink">
    <!-- Generator: Sketch 49.2 (51160) - http://www.bohemiancoding.com/sketch -->
    <title>3</title>
    <desc>Created with Sketch.</desc>
    <defs></defs>
    <g id="Page-1" stroke="none" stroke-width="1" fill="none" fill-rule="evenodd">
        <g id="首页" transform="translate(-1790.000000, -877.000000)" fill="#FFFFFF" fill-rule="nonzero">
            <g id="Group-5" transform="translate(1790.000000, 877.000000)">
                <path d="M30.5825695,0.932067736 C31.2266707,0.420356472 32.0518421,0 33.2579076,0 C35.107056,0 36.0608273,0.948616612 36.8199514,1.69960474 C37.4817518,2.35177865 37.9683699,2.82608695 39,2.82608695 C40.0316302,2.82608695 40.5182482,2.35177865 41.1800487,1.69960474 C41.9586375,0.948616612 42.9124088,0 44.7420925,0 C46.5912409,0 47.5644769,0.988142301 48.323601,1.77865612 C48.9854015,2.47035571 49.4720195,2.96442686 50.484185,2.96442686 C51.6131388,2.96442686 52.4695864,2.03557314 53.4622872,0.830039545 L55,2.13438736 C53.9878346,3.33992095 52.6253042,5 50.4841849,5 C48.6155718,5 47.6618005,4.0118577 46.8832117,3.22134388 C46.2214112,2.52964429 45.7347932,2.03557314 44.7226278,2.03557314 C43.6909976,2.03557314 43.2043796,2.50988144 42.5425791,3.16205535 C41.7639903,3.91304348 40.810219,4.86166009 38.9805353,4.86166009 C37.1508516,4.86166009 36.1776156,3.91304348 35.4184915,3.16205535 C34.756691,2.50988144 34.270073,2.03557314 33.2384428,2.03557314 C32.2262774,2.03557314 31.7396593,2.52964429 31.0778589,3.22134388 C30.2992701,4.0118577 29.3454988,5 27.4963503,5 C27.4943214,5 27.4922931,4.99999851 27.4902656,4.99999553 C27.4882422,4.99999851 27.4862139,5 27.4841849,5 C25.6155718,5 24.6618005,4.0118577 23.8832117,3.22134388 C23.2214112,2.52964429 22.7347932,2.03557314 21.7226278,2.03557314 C20.6909976,2.03557314 20.2043796,2.50988144 19.5425791,3.16205535 C18.7639903,3.91304348 17.810219,4.86166009 15.9805353,4.86166009 C14.1508516,4.86166009 13.1776156,3.91304348 12.4184915,3.16205535 C11.756691,2.50988144 11.270073,2.03557314 10.2384428,2.03557314 C9.22627735,2.03557314 8.73965934,2.52964429 8.07785886,3.22134388 C7.29927006,4.0118577 6.34549876,5 4.49635034,5 C2.35523114,5 0.992700742,3.33992095 0,2.13438736 L1.53771291,0.830039545 C2.53041365,2.0355731 3.38686132,2.96442686 4.5158151,2.96442686 C5.52798056,2.96442686 6.01459857,2.47035571 6.67639905,1.77865612 C7.45498785,0.988142301 8.40875915,0 10.2579076,0 C12.107056,0 13.0608273,0.948616612 13.8199514,1.69960474 C14.4817518,2.35177865 14.9683699,2.82608695 16,2.82608695 C17.0316302,2.82608695 17.5182482,2.35177865 18.1800487,1.69960474 C18.9586375,0.948616612 19.9124088,0 21.7420925,0 C22.9453749,0 23.7777612,0.41841869 24.4216051,0.92852674 L24.5377129,0.830039545 C25.525773,2.02993747 26.3788509,2.95573641 27.5,2.96436603 C28.6211492,2.95573641 29.4742271,2.02993751 30.4622872,0.830039545 L30.5825695,0.932067736 Z" id="Combined-Shape-Copy"></path>
            </g>
        </g>
    </g>
</svg>