<?xml version="1.0" encoding="UTF-8"?>
<svg width="32px" height="32px" viewBox="0 0 32 32" version="1.1" xmlns="http://www.w3.org/2000/svg" xmlns:xlink="http://www.w3.org/1999/xlink">
    <!-- Generator: Sketch 49.2 (51160) - http://www.bohemiancoding.com/sketch -->
    <title>4</title>
    <desc>Created with Sketch.</desc>
    <defs></defs>
    <g id="Page-1" stroke="none" stroke-width="1" fill="none" fill-rule="evenodd">
        <g id="首页" transform="translate(-1668.000000, -84.000000)" fill="#FFFFFF" fill-rule="nonzero">
            <g id="登录" transform="translate(1668.000000, 84.000000)">
                <path d="M29.9129178,32 C29.3144509,32 28.8275161,31.5119805 28.8275161,30.9128995 C28.8275161,27.6130905 26.6824313,23.9637505 24.6903423,21.9684108 C24.2658772,21.5453021 24.2658772,20.8550535 24.6885888,20.430738 C24.8940812,20.2249982 25.1667559,20.1121814 25.4569294,20.1121814 C25.7470664,20.1121814 26.0203256,20.2249982 26.2252701,20.4301163 C28.6015658,22.8088503 31,26.9730883 31,30.9123144 C30.998904,31.5120171 30.5119692,32 29.9129178,32 Z M3.08598619,32 C2.48751928,32 2,31.5119805 2,30.9128995 C2,26.9731249 4.39788617,22.8094354 6.77418195,20.4313231 C8.1783617,19.0262878 9.87271501,17.9368834 11.7130136,17.2524859 C8.92043587,15.5733624 7.21676691,12.590318 7.21676691,9.29222772 C7.21676691,4.16833379 11.3814128,0 16.5000183,0 C21.6181123,0 25.7827582,4.16829723 25.7827582,9.29222772 C25.7827582,14.4167433 21.6181123,18.584492 16.5000183,18.584492 C16.3815085,18.584492 16.2635467,18.5815665 16.146206,18.5774707 C13.2012534,18.6604834 10.4098447,19.865045 8.31027869,21.968484 C6.31698421,23.9638237 4.17306834,27.6131271 4.17306837,30.9129727 C4.17135139,31.5120171 3.6850011,32 3.08598619,32 Z M16.4982647,16.3985889 C16.5473272,16.3985889 16.5946361,16.4020995 16.6419085,16.4091209 C20.4871918,16.3331296 23.6108223,13.1461008 23.6108223,9.29281283 C23.6108223,5.36759282 20.4206305,2.1747129 16.4994703,2.1747129 C12.5783101,2.1747129 9.38811826,5.36759282 9.38811826,9.29219116 C9.38811826,13.1075199 12.3692741,16.2314299 16.1748471,16.4032332 C16.2670903,16.4003442 16.3826775,16.3985889 16.4982647,16.3985889 Z" id="Shape"></path>
            </g>
        </g>
    </g>
</svg>