<?xml version="1.0" encoding="UTF-8"?>
<svg width="42px" height="41px" viewBox="0 0 42 41" version="1.1" xmlns="http://www.w3.org/2000/svg" xmlns:xlink="http://www.w3.org/1999/xlink">
    <!-- Generator: Sketch 49.2 (51160) - http://www.bohemiancoding.com/sketch -->
    <title>41</title>
    <desc>Created with Sketch.</desc>
    <defs></defs>
    <g id="Page-1" stroke="none" stroke-width="1" fill="none" fill-rule="evenodd">
        <g id="首页" transform="translate(-1237.000000, -6361.000000)" fill="#999999" fill-rule="nonzero">
            <g id="客服-copy-2" transform="translate(1237.000000, 6361.000000)">
                <g id="Group-18">
                    <path d="M40.5397114,14.0422417 C39.6425406,12.8859954 38.4065447,12.0938437 37.0560164,11.8035521 C34.7653676,4.624985 28.5853881,0 21.2791728,0 C14.0111351,0 7.84547212,4.59054361 5.53096239,11.7100684 C4.04681287,11.8675147 2.67719579,12.6104644 1.651176,13.8060722 C0.586978728,15.050882 0,16.674547 0,18.3769351 L0,23.6415456 C0,27.3366135 2.74877854,30.3477739 6.12748554,30.3477739 L9.28189978,30.3477739 C10.3174639,30.3477739 11.1621407,29.4768991 11.1621407,28.4092164 L11.1621407,13.6043442 C11.1621407,12.6547462 10.4940348,11.8625945 9.62072495,11.700228 C10.5799341,9.34837393 12.1356664,7.39013561 14.1352119,6.02232089 C16.1920237,4.6151446 18.6640155,3.87219488 21.2791728,3.87219488 C23.889558,3.87219488 26.366322,4.6151446 28.4326781,6.02232089 C30.4274515,7.3802952 32.0022725,9.32869316 32.994887,11.6707068 L32.7181002,11.6707068 C31.6825361,11.6707068 30.8378593,12.5415817 30.8378593,13.6092644 L30.8378593,28.4141366 C30.8378593,28.8126725 30.9619362,29.1964479 31.1862288,29.526101 C30.9189865,29.8459138 30.6565163,30.1706468 30.4035905,30.4855394 C28.5806159,32.7439098 26.8530849,34.8792752 23.9372799,35.3909756 C23.2882627,34.3823353 22.1811158,33.7574703 21.0023861,33.7574703 C19.064879,33.7574703 17.490058,35.3811352 17.490058,37.3787352 C17.490058,39.3763351 19.064879,41 21.0023861,41 C21.851835,41 22.6678786,40.6851074 23.3073514,40.1094444 C23.8943302,39.5829833 24.2951937,38.8695548 24.4479037,38.0872435 C26.4331326,37.7379095 28.222702,36.8030721 29.9168276,35.2286092 C31.4582434,33.7968319 32.7849108,31.9714389 33.9588683,30.3428537 L35.8725145,30.3428537 C39.2512215,30.3428537 42,27.3366135 42,23.6366255 L42,18.3720149 C41.9952278,16.7877115 41.4798319,15.2476899 40.5397114,14.0422417 Z M7.4016589,26.4706588 L6.12748554,26.4706588 C4.82467905,26.4706588 3.76048178,25.2012481 3.76048178,23.6415456 L3.76048178,18.3720149 C3.76048178,18.150606 3.78911488,17.924277 3.84638112,17.6585863 C3.8559255,17.6093843 3.87501422,17.5552622 3.88933077,17.4962198 C3.95136919,17.274811 4.02295193,17.0927637 4.10407911,16.9303972 C4.10885128,16.9205568 4.11362349,16.9057962 4.11839566,16.8959558 C4.12316783,16.8910357 4.12316783,16.8861154 4.12794004,16.876275 C4.34746055,16.4580583 4.66242474,16.1136445 5.03465517,15.8823953 C5.1873651,15.7889116 5.34961936,15.7101884 5.52141805,15.651146 L5.5643677,15.6363854 L5.57391208,15.6314653 L5.57868425,15.6314653 C5.76479945,15.5724229 5.95091469,15.5429017 6.12748554,15.5429017 L7.4016589,15.5429017 L7.4016589,26.4706588 Z M38.2395182,23.6415456 C38.2395182,25.201248 37.175321,26.4706588 35.8725145,26.4706588 L34.5983411,26.4706588 L34.5983411,15.5429017 L35.8725145,15.5429017 C36.4928985,15.5429017 37.0798773,15.8331933 37.5236905,16.3547342 C37.9913646,16.9156366 38.2442904,17.6339853 38.2347461,18.3769351 L38.2347461,23.6415456 L38.2395182,23.6415456 Z" id="Shape"></path>
                    <path d="M27.1377466,25.6667503 C27.3405869,25.4053571 27.4371776,25.0677243 27.4130299,24.7083087 C27.3888822,24.3271104 27.2246782,23.9676948 26.9638835,23.7226387 C26.7658727,23.5320395 26.4954189,23.4285714 26.2056469,23.4285714 C25.8241139,23.4285714 25.4570695,23.6082792 25.2300815,23.9077922 C24.0999711,25.301889 22.9215654,25.9009149 21.2940131,25.900915 C19.5891884,25.900915 18.5604982,25.3835744 17.3627743,23.9186836 C17.1261272,23.6137249 16.7590828,23.4340171 16.3775498,23.4340171 C16.0877779,23.4340171 15.8221536,23.5374852 15.6193133,23.7335301 C15.3536891,23.9840318 15.1943145,24.3325561 15.1701669,24.7137544 C15.1460192,25.07317 15.2474394,25.4162485 15.4551092,25.688533 C17.1840816,27.8559179 18.8164633,28.7 21.2940131,28.7 C23.6942904,28.6891086 25.5536601,27.7252214 27.1377466,25.6667503 Z" id="Shape"></path>
                </g>
            </g>
        </g>
    </g>
</svg>