<?xml version="1.0" encoding="UTF-8"?>
<svg width="85px" height="85px" viewBox="0 0 85 85" version="1.1" xmlns="http://www.w3.org/2000/svg" xmlns:xlink="http://www.w3.org/1999/xlink">
    <!-- Generator: Sketch 49.2 (51160) - http://www.bohemiancoding.com/sketch -->
    <title>42</title>
    <desc>Created with Sketch.</desc>
    <defs></defs>
    <g id="Page-1" stroke="none" stroke-width="1" fill="none" fill-rule="evenodd">
        <g id="平台服务" transform="translate(-78.000000, -1402.000000)" fill-rule="nonzero">
            <g id="Group-3" transform="translate(78.000000, 1402.000000)">
                <g id="Group-5" transform="translate(4.000000, 6.000000)">
                    <g id="Group-2" transform="translate(0.000000, 66.000000)" fill="#FFFFFF">
                        <path d="M42.8431647,1.16676187 C43.7220797,0.514384202 44.8395434,0 46.4251825,0 C49.0255475,0 50.3667884,1.32806326 51.4343066,2.37944664 C52.3649635,3.29249011 53.0492701,3.95652173 54.5000001,3.95652173 C55.95073,3.95652173 56.6350366,3.29249011 57.5656935,2.37944664 C58.660584,1.32806326 60.0018249,0 62.5748176,0 C65.1751825,0 66.5437957,1.38339922 67.6113139,2.49011857 C68.5419709,3.458498 69.2262774,4.15019761 70.6496351,4.15019761 C72.2372264,4.15019761 73.4416059,2.84980239 74.8375913,1.16205536 L77,2.9881423 C75.5766424,4.67588933 73.660584,7 70.6496351,7 C68.0218979,7 66.680657,5.61660078 65.5857665,4.50988143 C64.6551095,3.541502 63.970803,2.84980239 62.5474453,2.84980239 C61.0967153,2.84980239 60.4124088,3.51383402 59.4817518,4.42687749 C58.3868613,5.47826087 57.0456204,6.80632412 54.4726277,6.80632412 C51.899635,6.80632412 50.5310219,5.47826087 49.4635037,4.42687749 C48.5328467,3.51383402 47.8485401,2.84980239 46.3978102,2.84980239 C45.7166529,2.84980239 45.2047505,3.008213 44.7541056,3.27954914 C43.3568034,4.9309054 41.4905953,7 38.6496351,7 C38.5943464,7 38.5396273,6.99938757 38.485468,6.99817818 C38.4318607,6.99938757 38.3777054,7 38.3229927,7 C35.5199831,7 33.6658575,4.98581578 32.2968554,3.3459453 C31.8203265,3.03422957 31.2824121,2.84980239 30.5474453,2.84980239 C29.0967153,2.84980239 28.4124088,3.51383402 27.4817518,4.42687749 C26.3868613,5.47826087 25.0456204,6.80632412 22.4726277,6.80632412 C19.899635,6.80632412 18.5310219,5.47826087 17.4635037,4.42687749 C16.5328467,3.51383402 15.8485401,2.84980239 14.3978102,2.84980239 C12.9744525,2.84980239 12.2901459,3.541502 11.359489,4.50988143 C10.2645985,5.61660078 8.92335763,7 6.32299267,7 C3.3120438,7 1.39598542,4.67588933 0,2.9881423 L2.16240878,1.16205536 C3.5583942,2.84980234 4.76277374,4.15019761 6.35036498,4.15019761 C7.77372266,4.15019761 8.45802924,3.458498 9.38868617,2.49011857 C10.4835767,1.38339922 11.8248176,0 14.4251825,0 C17.0255475,0 18.3667884,1.32806326 19.4343066,2.37944664 C20.3649635,3.29249011 21.0492701,3.95652173 22.5000001,3.95652173 C23.95073,3.95652173 24.6350366,3.29249011 25.5656935,2.37944664 C26.660584,1.32806326 28.0018249,0 30.5748176,0 C33.1751825,0 34.5437957,1.38339922 35.6113139,2.49011857 C36.5087523,3.42393289 37.1771126,4.10046637 38.5000001,4.14757271 C39.8228875,4.10046637 40.4912479,3.42393289 41.3886862,2.49011857 C41.8096641,2.06459248 42.2670613,1.59816341 42.8184454,1.18519287 C42.8248234,1.17748853 42.8312054,1.169776 42.8375913,1.16205536 L42.8431647,1.16676187 Z" id="Combined-Shape"></path>
                    </g>
                    <g id="房子4" transform="translate(10.000000, 0.000000)">
                        <path d="M53.9405553,27.1215082 L35.55596,23.3423712 C34.4303725,22.9644575 33.304785,23.3423712 32.5543934,23.7202849 L32.5543934,5.20251372 C32.9295892,4.44668632 32.9295892,3.31294523 32.5543934,2.17920413 C31.8040017,0.28963564 29.5528268,-0.466191757 27.6768477,0.28963564 L2.16353175,11.6270466 C0.287552641,12.382874 -0.462839004,14.6503562 0.287552641,16.5399247 C0.662748463,17.2957521 1.41314011,18.0515795 2.53872758,18.4294932 L2.53872758,54.3312945 C2.53872758,57.3546041 5.16509833,60 8.16666491,60 L49.4382054,60 C52.439772,60 55.0661427,57.3546041 55.0661427,54.3312945 L55.0661427,35.4356096 L55.0661427,34.3018685 C55.8165344,33.9239548 56.566926,32.7902137 56.9421218,32.0343863 C57.3173177,29.7669041 55.8165344,27.8773356 53.9405553,27.1215082 Z M28.8024352,54.3312945 C28.8024352,55.4650356 28.0520435,56.220863 26.926456,56.220863 L21.2985187,56.220863 L21.2985187,44.8834521 L13.7946023,44.8834521 L13.7946023,56.220863 L8.16666491,56.220863 C7.04107745,56.220863 6.2906858,55.4650356 6.2906858,54.3312945 L6.2906858,17.6736658 L28.8024352,7.84790961 L28.8024352,54.3312945 Z M51.3141845,35.4356096 L51.3141845,54.3312945 C51.3141845,55.4650356 50.5637929,56.220863 49.4382054,56.220863 L43.8102681,56.220863 L43.8102681,48.662589 L40.0583098,48.662589 L40.0583098,56.220863 L32.5543934,56.220863 L32.5543934,35.4356096 L32.5543934,30.1448178 L32.9295892,30.1448178 C33.304785,30.5227315 33.6799808,30.5227315 34.0551767,30.5227315 L51.6893803,34.3018685 C51.3141845,34.6797822 51.3141845,35.0576959 51.3141845,35.4356096 Z" id="Shape" fill="#46B5D8"></path>
                        <path d="M40.125,40.3333333 L44,40.3333333 L44,44 L40.125,44 L40.125,40.3333333 Z M40.125,33 L44,33 L44,36.6666667 L40.125,36.6666667 L40.125,33 Z M13,36.6666667 L20.75,36.6666667 L20.75,40.3333333 L13,40.3333333 L13,36.6666667 Z M13,29.3333333 L20.75,29.3333333 L20.75,33 L13,33 L13,29.3333333 Z M13,22 L20.75,22 L20.75,25.6666667 L13,25.6666667 L13,22 Z" id="Shape" fill="#FFFFFF"></path>
                    </g>
                </g>
            </g>
        </g>
    </g>
</svg>