<?xml version="1.0" encoding="UTF-8"?>
<svg width="85px" height="85px" viewBox="0 0 85 85" version="1.1" xmlns="http://www.w3.org/2000/svg" xmlns:xlink="http://www.w3.org/1999/xlink">
    <!-- Generator: Sketch 49.2 (51160) - http://www.bohemiancoding.com/sketch -->
    <title>43</title>
    <desc>Created with Sketch.</desc>
    <defs></defs>
    <g id="Page-1" stroke="none" stroke-width="1" fill="none" fill-rule="evenodd">
        <g id="平台服务" transform="translate(-319.000000, -1313.000000)">
            <g id="船舶出售" transform="translate(319.000000, 1313.000000)">
                <g id="Group-6" transform="translate(5.000000, 11.000000)">
                    <path d="M54.2313152,20.2096687 C36.3551844,13.2612711 18.4367432,5.66675719 0,7.78517108 C1.75588033,16.5236285 12.6402227,23.8639326 11.4343772,31.9139055 C10.6622129,35.949484 7.09756436,32.7400869 6.84370216,39 L34.6310368,39 C37.687961,30.3462792 45.9279053,24.1393264 55.6169798,24.1393265 C63.3597773,24.1393265 70.1823243,28.1007605 74.159499,34.1064639 L76,27.6558936 C68.7860821,25.7599131 61.2125261,22.9212385 54.2313152,20.2096687 Z M17.5059151,21.9255839 C15.8135004,21.9255839 14.4489909,20.5803911 14.4489909,18.9174362 C14.4489909,17.2650733 15.8135003,15.9198805 17.5059151,15.9198805 C19.1983298,15.9198805 20.5628393,17.2650733 20.5628392,18.9174362 C20.5628392,20.5803911 19.1983298,21.9255839 17.5059151,21.9255839 Z M23.1966597,4.75583924 L36.7254001,4.75583924 L33.0232429,8.65372079 C40.7131524,11.0157523 48.350174,14.0874525 55.9766179,17.0426399 C60.6307585,18.8432917 65.5599165,20.6969038 70.4679193,22.2857143 L70.4679193,18.1336231 L64.6925539,15.4432374 L64.6925539,10.2637154 L45.7163535,0 L29.934586,0 L28.3479471,2.95518738 L22.1071677,2.95518738 L20.3830202,4.30038024 L21.451357,4.63932643 L23.1966597,4.75583924 Z" id="Shape" fill="#46B5D8" fill-rule="nonzero"></path>
                    <path d="M55.5,28 C65.1441606,27.9999999 73,35.8558394 73,45.5 C73.0000001,55.1548054 65.1441606,63 55.5,63 C45.8451946,63 38,55.1441606 38,45.5 C38,35.8451946 45.8558394,28 55.5,28 Z M57.0434915,58.071472 C61.673966,57.475365 64.3351582,55.495438 64.3351582,51.1843066 C64.3351582,46.6815693 62.131691,44.6803528 57.0434915,43.5839416 L57.0434915,36.8351581 C58.1079684,37.2396593 58.725365,38.4212287 58.8850365,40.3585766 L64.111618,40.3585766 C64.1116181,36.2816302 61.7484793,33.9078467 57.0434915,33.2372263 L57.0434915,31.4701946 L53.9458637,31.4701946 L53.9458637,33.2585158 C49.4111922,34.1100973 46.9628954,36.473236 46.6009732,40.3585766 C46.2390511,44.3610098 48.6873479,46.8625304 53.9458637,47.8737835 L53.9458637,54.3777372 C52.3385036,53.9945255 51.540146,52.6639294 51.540146,50.3753041 L46.3242093,50.3753041 C46.3242092,55.2718978 48.868309,57.8585766 53.9565085,58.1140511 L53.9565085,59.5404501 L57.0434915,59.5404501 L57.0434915,58.071472 Z M57.0434915,48.6082725 C58.3634429,49.2043795 59.0234185,50.1730535 59.0234185,51.5036496 C58.9489051,53.0684306 58.2782847,54.015815 57.0434915,54.3564477 L57.0434915,48.6082725 Z M52.2533455,40.0711679 C52.3278588,38.2083333 52.9026764,37.1119221 53.9565085,36.792579 L53.9565085,42.7323601 C52.7323601,42.274635 52.1681874,41.3911192 52.2533455,40.0711679 Z" id="Combined-Shape" fill="#FFFFFF"></path>
                </g>
            </g>
        </g>
    </g>
</svg>