<?xml version="1.0" encoding="UTF-8"?>
<svg width="85px" height="85px" viewBox="0 0 85 85" version="1.1" xmlns="http://www.w3.org/2000/svg" xmlns:xlink="http://www.w3.org/1999/xlink">
    <!-- Generator: Sketch 49.2 (51160) - http://www.bohemiancoding.com/sketch -->
    <title>44</title>
    <desc>Created with Sketch.</desc>
    <defs></defs>
    <g id="Page-1" stroke="none" stroke-width="1" fill="none" fill-rule="evenodd">
        <g id="平台服务" transform="translate(-557.000000, -1405.000000)">
            <g id="租赁成交管理" transform="translate(557.000000, 1405.000000)">
                <g id="Group-7" transform="translate(9.000000, 6.000000)">
                    <path d="M66.2913231,45.8894655 C64.2782882,44.5196725 61.3628583,44.7578974 59.6968983,46.4254715 L51.7835885,54.1082235 L51.7835885,54.2273359 C51.5753435,57.9793776 47.9657636,60.8976322 43.5926188,60.8976322 L35.054574,60.8976322 C34.082764,60.7785198 33.3886141,60.0638452 33.5274441,59.2300582 C33.596859,58.5749398 34.221594,58.0389338 35.054574,57.9198214 L43.5926188,57.9198214 C46.0915587,57.9793776 48.1045936,56.3118035 48.3128386,54.1677797 C48.3822536,52.0237559 46.4386337,50.2370694 43.9396938,50.1775132 L29.5013742,50.1775132 L27.2106792,49.4628386 C21.3798194,47.7357083 14.9242246,48.9863888 10.5510797,52.6788743 L0,61.6718631 L14.7159796,74 L18.8808795,70.426627 L42.6208088,70.426627 C45.8138987,70.426627 48.8681586,69.2355026 51.0200236,67.151035 L66.8466431,51.6068624 C68.5126031,49.9392883 68.3737731,47.4379272 66.4301531,45.9490218 C66.3607381,45.9490218 66.2913231,45.8894655 66.2913231,45.8894655 Z" id="Shape" fill="#FFFFFF" fill-rule="nonzero"></path>
                    <path d="M18.5278499,40 L49.4721501,40 C51.971651,40 54,37.971651 54,35.4721501 L54,4.52784988 C54,2.02834897 51.971651,0 49.4721501,0 L18.5278499,0 C16.028349,1.10900397e-15 14,2.02834897 14,4.52784988 L14,35.4721501 C14,37.971651 16.028349,40 18.5278499,40 Z" id="Path" fill="#46B5D8"></path>
                    <path d="M33.0143916,7 L45.2054077,7 L45.2054077,30.3147023 L48,30.3147023 L48,33 L30,33 L30,30.3147023 L33.0065417,30.3147023 L33.0065417,7 L33.0143916,7 Z M42.2852158,24.9835966 L35.8325338,24.9835966 L35.8325338,30.3226003 L42.2852158,30.3226003 L42.2852158,24.9835966 Z M42.2852158,9.68529771 L35.8325338,9.68529771 L35.8325338,14.5504253 L42.2852158,14.5504253 L42.2852158,9.68529771 Z M42.2852158,17.1804374 L35.8325338,17.1804374 L35.8325338,22.3614824 L42.2852158,22.3614824 L42.2852158,17.1804374 Z" id="Combined-Shape" fill="#FFFFFF"></path>
                    <path d="M19.3915547,16.9633362 L19.3915547,14.2675622 L24.1516315,14.2675622 L24.1516315,10.1220263 C22.8771594,10.3727959 21.6333974,10.5843828 20.4203455,10.7411139 C20.3589252,10.0906801 19.9673705,9.1032746 19.6602687,8.47635041 C23.0614203,7.91995525 26.9385797,7.01875174 29.3109405,6 L30.9462572,8.31961933 C29.7332054,8.7819759 28.3358925,9.22082283 26.8464492,9.52644832 L26.8464492,14.2675622 L30.8541267,14.2675622 L30.8541267,16.9633362 L26.8464492,16.9633362 L26.8464492,17.4570389 C27.7293667,18.3817521 30.3934741,21.7906521 31,22.6291632 L29.3493282,24.8939267 C28.865643,23.8751749 27.7984645,22.0414217 26.8618043,20.5603135 L26.8618043,34 L24.159309,34 L24.159309,21.5790652 C23.0690979,24.3375315 21.7332054,26.970613 20.3973129,28.7024909 C20.1209214,27.8953261 19.4529751,26.7198432 19,26.0067171 C20.7888675,23.8986846 22.6698656,20.2468514 23.7907869,16.9633362 L19.3915547,16.9633362 Z" id="Path" fill="#FFFFFF"></path>
                </g>
            </g>
        </g>
    </g>
</svg>