<?xml version="1.0" encoding="UTF-8"?>
<svg width="85px" height="85px" viewBox="0 0 85 85" version="1.1" xmlns="http://www.w3.org/2000/svg" xmlns:xlink="http://www.w3.org/1999/xlink">
    <!-- Generator: Sketch 49.2 (51160) - http://www.bohemiancoding.com/sketch -->
    <title>45</title>
    <desc>Created with Sketch.</desc>
    <defs></defs>
    <g id="Page-1" stroke="none" stroke-width="1" fill="none" fill-rule="evenodd">
        <g id="平台服务" transform="translate(-802.000000, -1406.000000)">
            <g id="稳健基金" transform="translate(802.000000, 1406.000000)">
                <g id="Group-8" transform="translate(13.000000, 13.000000)">
                    <path d="M2.00460233,35.6792666 C2.00460233,35.164 3.04106287,34.4461666 4.41973232,35.5455334 C7.1888716,37.7501667 8.88418277,39.0934 10.8784351,40.5192334 C11.8637609,41.2233 13.0949266,40.9519 13.4351688,40.5389 C13.7754111,40.1259 21.5183808,29.6121 21.8881239,29.1656666 C22.3601362,28.5953333 23.890243,28.3160666 24.8618018,29.0948666 C28.3448599,31.9013 33.2852561,36.521 33.4425936,36.6763666 C33.6018977,36.8297666 34.6127909,37.3489666 35.3208095,36.4993666 C36.469373,35.1207333 48.9659008,24.6777333 53.2061453,20.5025 C55.1315624,18.6086 56.9940446,19.765 56.9940446,20.3727 L56.9940446,56.0578666 C56.9940446,56.0578666 56.6577358,59 54.2308055,59 L5.06874935,59 C2.43531363,59 2.00460233,56.5987 2.00460233,56.5987 L2.00460233,35.6792666 Z" id="Shape" fill="#46B5D8" fill-rule="nonzero"></path>
                    <path d="M58.6500214,1.2567 C58.178009,0.511333353 57.3264201,0.0806333525 56.3941956,0.0196666475 L56.4276298,0 L56.2152242,0.0157333525 C56.019709,0.0154718483 55.8244517,0.0299349649 55.6311089,0.059 L40.713551,1.16033335 L46.8103775,6.2186 L30.9212608,19.5585 L21.0345681,14.4097666 C19.8215382,13.8710002 18.3968487,14.2988136 17.6813135,15.4167 L10.0012787,25.2638 L3.94181979,20.3156666 C2.54938327,19.6450333 0.899306636,20.0954 0.256189825,21.3147334 C-0.386927043,22.5360334 0.222755596,24.0680667 1.61519212,24.7347666 L9.45453109,30.798 C10.4595241,31.2798334 11.3917485,31.0025334 12.0741998,30.3594334 L12.1017338,30.3397666 L12.1745024,30.2591334 C12.2433376,30.1883334 12.3023391,30.1155667 12.3672408,30.0408334 L20.3245828,19.9262666 L29.8454659,24.5715334 C30.9645286,25.0376334 32.2782964,25.1064667 33.1003846,24.5322 C33.1706344,24.5003678 33.2401434,24.4669256 33.3088568,24.4319 L57.3401871,4.96583335 C58.84866,4.1654 59.4386755,2.5075 58.6500214,1.2567 Z" id="Path" fill="#FFFFFF"></path>
                </g>
            </g>
        </g>
    </g>
</svg>