<?xml version="1.0" encoding="UTF-8"?>
<svg width="85px" height="85px" viewBox="0 0 85 85" version="1.1" xmlns="http://www.w3.org/2000/svg" xmlns:xlink="http://www.w3.org/1999/xlink">
    <!-- Generator: Sketch 49.2 (51160) - http://www.bohemiancoding.com/sketch -->
    <title>46</title>
    <desc>Created with Sketch.</desc>
    <defs></defs>
    <g id="Page-1" stroke="none" stroke-width="1" fill="none" fill-rule="evenodd">
        <g id="平台服务" transform="translate(-1039.000000, -1404.000000)">
            <g id="项目策划" transform="translate(1039.000000, 1404.000000)">
                <g id="Group-9" transform="translate(13.000000, 13.000000)">
                    <path d="M50.9554883,58.53506 C50.7148779,58.8290579 50.3519884,59 49.9684766,59 C49.5849647,59 49.2220752,58.8290579 48.9814648,58.53506 L41,47.2385613 L41,5.89189933 C41,2.43649972 43.0609766,0 46.5154883,0 L52.9295117,0 C54.5714383,0.00178700164 56.1422074,0.660035436 57.2816742,1.8238225 C58.4211409,2.98760956 59.0315649,4.55710865 58.9729883,6.17246596 L59,47.2385613 L50.9554883,58.53506 Z M54.5,8.84523232 L54.5,5.89189933 C54.4417653,5.10132131 53.8030703,4.4725616 53,4.41523283 L47,4.41523283 C46.1969297,4.4725616 45.5582347,5.10132131 45.5,5.89189933 L45.5,10.3218988 L54.5,10.3218988 L54.5,8.84523232 Z M54.5,14.7518983 L45.5,14.7518983 L45.5,45.7618948 L49.9684766,50.9006942 L54.5,45.7618948 L54.5,14.7518983 Z" id="Shape" fill="#FFFFFF" fill-rule="nonzero"></path>
                    <path d="M31.08,59 L5.92,59 C2.65047428,59 4.00401421e-16,56.35848 0,53.1 L0,5.9 C-4.00401421e-16,2.64151998 2.65047428,5.9857307e-16 5.92,0 L31.08,0 C32.6500816,-1.29398645e-15 34.1558568,0.621605358 35.2660721,1.72806999 C36.3762875,2.83453462 37,4.33522271 37,5.9 L37,53.1 C37,56.35848 34.3495257,59 31.08,59 Z" id="Path" fill="#46B5D8"></path>
                    <path d="M25.8076923,18 L11.1923077,18 C9.98152959,18 9,18.8954305 9,20 C9,21.1045695 9.98152959,22 11.1923077,22 L25.8076923,22 C27.0184704,22 28,21.1045695 28,20 C28,18.8954305 27.0184704,18 25.8076923,18 Z" id="Path" fill="#FFFFFF"></path>
                    <path d="M25.8076923,28 L11.1923077,28 C9.98152959,28 9,28.8954305 9,30 C9,31.1045695 9.98152959,32 11.1923077,32 L25.8076923,32 C27.0184704,32 28,31.1045695 28,30 C28,28.8954305 27.0184704,28 25.8076923,28 Z" id="Path" fill="#FFFFFF"></path>
                    <path d="M25.8076924,38 L11.1923077,38 C9.98152959,38 9,38.8954305 9,40 C9,41.1045695 9.98152959,42 11.1923077,42 L25.8076924,42 C27.0184705,41.9999999 28,41.1045695 28,40 C28,38.8954305 27.0184705,38.0000001 25.8076924,38 Z" id="Path" fill="#FFFFFF"></path>
                </g>
            </g>
        </g>
    </g>
</svg>