<?xml version="1.0" encoding="UTF-8"?>
<svg width="85px" height="85px" viewBox="0 0 85 85" version="1.1" xmlns="http://www.w3.org/2000/svg" xmlns:xlink="http://www.w3.org/1999/xlink">
    <!-- Generator: Sketch 49.2 (51160) - http://www.bohemiancoding.com/sketch -->
    <title>47</title>
    <desc>Created with Sketch.</desc>
    <defs></defs>
    <g id="Page-1" stroke="none" stroke-width="1" fill="none" fill-rule="evenodd">
        <g id="平台服务" transform="translate(-1278.000000, -1407.000000)">
            <g id="13码头" transform="translate(1278.000000, 1407.000000)">
                <g id="Group-10" transform="translate(11.000000, 9.000000)">
                    <path d="M62.7572816,38.59375 L56.9579288,45.60625 L59.236246,45.8125 C59.236246,45.8125 51.7799353,51.79375 45.1521036,52.20625 C38.5242718,52.61875 35.4174757,43.75 35.4174757,43.75 L35.4174757,29.10625 L44.3236246,29.10625 L44.3236246,24.775 L35.8317152,24.775 L35.8317152,19 C35.8317152,19 29.4110032,19 29.4110032,19 L29.4110032,24.775 L20.9190939,24.775 L20.9190939,29.10625 L29.8252427,29.10625 L29.8252427,43.75 C29.8252427,43.75 26.5113269,52.4125 19.8834951,52.20625 C13.2556634,51.79375 5.79935275,45.8125 5.79935275,45.8125 L8.0776699,45.60625 L2.07119741,38.59375 L0,47.25625 L2.48543689,46.6375 C2.48543689,46.6375 7.45631068,55.50625 15.1197411,58.80625 C22.7831715,62.3125 30.4466019,66.64375 32.1035599,66.85 C33.7605178,66.64375 41.4239482,62.3125 48.8802589,58.80625 C56.3365696,55.3 61.5145631,46.6375 61.5145631,46.6375 L64,47.25625 L62.7572816,38.59375 Z" id="Shape" fill="#46B5D8" fill-rule="nonzero"></path>
                    <circle id="Oval" stroke="#FFFFFF" stroke-width="5" cx="32.5" cy="9.5" r="9.5"></circle>
                </g>
            </g>
        </g>
    </g>
</svg>