<?xml version="1.0" encoding="UTF-8"?>
<svg width="85px" height="85px" viewBox="0 0 85 85" version="1.1" xmlns="http://www.w3.org/2000/svg" xmlns:xlink="http://www.w3.org/1999/xlink">
    <!-- Generator: Sketch 49.2 (51160) - http://www.bohemiancoding.com/sketch -->
    <title>48</title>
    <desc>Created with Sketch.</desc>
    <defs></defs>
    <g id="Page-1" stroke="none" stroke-width="1" fill="none" fill-rule="evenodd">
        <g id="平台服务" transform="translate(-1518.000000, -1404.000000)">
            <g id="Page-1" transform="translate(1518.000000, 1404.000000)">
                <g id="Group-11" transform="translate(11.000000, 8.000000)">
                    <path d="M31.3728,31.9924129 C39.2453,31.9924129 45.6528,24.9116387 45.6528,16.2102194 C45.6528,7.5088 39.2453,0.423380645 31.3728,0.423380645 C23.4998,0.423380645 17.0928,7.50415484 17.0928,16.2055742 C17.0928,24.9069935 23.4998,31.9924129 31.3728,31.9924129" id="Fill-1" fill="#46B5D8"></path>
                    <path d="M60.3840727,55.4249097 C57.9949945,51.3741458 52.6769086,43.1442847 52.2491977,42.4092847 C51.6881039,41.4404653 49.9408383,37.7275486 46.6741898,36.7339375 C46.3232602,36.6279653 45.873893,36.4845625 45.3295336,36.3149097 L42.7007602,35.5750486 C39.8874164,34.8560903 35.9912602,34.1162292 31.4316352,34.1162292 C31.1230336,34.1162292 23.1722367,33.4901181 14.9128383,37.2326875 C14.9128383,37.2326875 13.8634945,37.3386597 11.8086117,40.4721319 C8.66156484,45.5257431 3.84058828,52.8922708 2.41472109,55.3403264 C1.41705703,56.9517847 -1.09605234,60.1912292 0.538994531,63.5867153 C2.33744766,66.9695625 3.87061172,69.5362292 4.46960391,69.9722708 L57.7425023,69.9722708 C57.7425023,69.9722708 58.4955492,70.0437292 62.2081195,63.4005347 C63.5911664,59.9117153 62.0835961,58.3979653 60.3840727,55.4249097" id="Fill-4" fill="#46B5D8"></path>
                    <path d="M38.9146469,58.9425551 L34.3114212,54.1999094 L40.826802,54.1999094 C40.6130114,55.9743582 39.9322702,57.5983691 38.9146469,58.9425551 M32.6643864,62.6095439 L32.6643864,55.8963153 L37.267612,60.6394745 C35.9629411,61.6879191 34.3866715,62.3887647 32.6643864,62.6095439 M25.732388,60.6394745 L30.3356136,55.8963153 L30.3356136,62.6095439 C28.6133285,62.3887647 27.0370589,61.6879191 25.732388,60.6394745 M22.173198,54.1999094 L28.6885788,54.1999094 L24.0853531,58.9425551 C23.0677298,57.5983691 22.387487,55.9743582 22.173198,54.1999094 M24.0853531,47.0579583 L28.6885788,51.800604 L22.173198,51.800604 C22.387487,50.0261552 23.0682282,48.4021444 24.0853531,47.0579583 M30.3356136,43.3909695 L30.3356136,50.1036847 L25.732388,45.361039 C27.0375572,44.3125944 28.6133285,43.6117487 30.3356136,43.3909695 M37.267612,45.361039 L32.6643864,50.1036847 L32.6643864,43.3909695 C34.3866715,43.6117487 35.9629411,44.3125944 37.267612,45.361039 M40.826802,51.800604 L34.3114212,51.800604 L38.9146469,47.0579583 C39.9322702,48.4021444 40.612513,50.0261552 40.826802,51.800604 M46.8363612,51.800604 L44.2604086,51.800604 C44.019209,49.0593476 42.9637113,46.5578677 41.3430888,44.5554515 L43.167535,42.6757475 C43.6220269,42.2074902 43.6220269,41.4481124 43.167535,40.9793416 C42.7130431,40.5110843 41.9759888,40.5110843 41.5205002,40.9793416 L39.696054,42.8590456 C37.7530014,41.1893386 35.3250578,40.1018725 32.6643864,39.8533676 L32.6643864,37.1999094 C32.6643864,36.5370583 32.143116,36 31.5002492,36 C30.856884,36 30.3356136,36.5370583 30.3356136,37.1999094 L30.3356136,39.8533676 C27.6749422,40.1018725 25.2469986,41.1893386 23.303946,42.8590456 L21.4794998,40.9793416 C21.0250079,40.5110843 20.2874553,40.5110843 19.8329633,40.9793416 C19.3779731,41.4481124 19.3779731,42.2074902 19.8329633,42.6757475 L21.6574095,44.5554515 C20.0362887,46.5573543 18.980791,49.0593476 18.7400897,51.800604 L16.1646355,51.800604 C15.5212703,51.800604 15,52.3376623 15,53 C15,53.6628511 15.5212703,54.1999094 16.1646355,54.1999094 L18.7400897,54.1999094 C18.980791,56.9411658 20.0362887,59.4431592 21.6569112,61.4445485 L19.8329633,63.3242525 C19.3779731,63.7925098 19.3779731,64.5524011 19.8329633,65.0211719 C20.2874553,65.4894292 21.0250079,65.4894292 21.4794998,65.0211719 L23.303946,63.1414678 C25.2469986,64.8111749 27.6749422,65.8986409 30.3356136,66.1466324 L30.3356136,68.8000906 C30.3356136,69.4629417 30.856884,70 31.5002492,70 C32.143116,70 32.6643864,69.4629417 32.6643864,68.8000906 L32.6643864,66.1466324 C35.3250578,65.8986409 37.7534998,64.8111749 39.696054,63.1414678 L41.5205002,65.0211719 C41.9759888,65.4894292 42.7130431,65.4894292 43.167535,65.0211719 C43.6220269,64.5524011 43.6220269,63.7925098 43.167535,63.3242525 L41.3430888,61.4445485 C42.9637113,59.4431592 44.0197073,56.9411658 44.2604086,54.1999094 L46.8363612,54.1999094 C47.479228,54.1999094 48,53.6628511 48,53 C48,52.3376623 47.479228,51.800604 46.8363612,51.800604" id="Fill-7" fill="#FFFFFF"></path>
                </g>
            </g>
        </g>
    </g>
</svg>