<?xml version="1.0" encoding="UTF-8"?>
<svg width="85px" height="85px" viewBox="0 0 85 85" version="1.1" xmlns="http://www.w3.org/2000/svg" xmlns:xlink="http://www.w3.org/1999/xlink">
    <!-- Generator: Sketch 49.2 (51160) - http://www.bohemiancoding.com/sketch -->
    <title>49</title>
    <desc>Created with Sketch.</desc>
    <defs></defs>
    <g id="Page-1" stroke="none" stroke-width="1" fill="none" fill-rule="evenodd">
        <g id="平台服务" transform="translate(-1758.000000, -1404.000000)" fill-rule="nonzero">
            <g id="Group-4" transform="translate(1758.000000, 1404.000000)">
                <g id="Group-12" transform="translate(9.000000, 12.000000)">
                    <g id="船舶出售-copy" transform="translate(4.000000, 0.000000)" fill="#46B5D8">
                        <path d="M40.6734864,15.0277023 C27.2663883,9.86094515 13.8275574,4.21374252 0,5.78897337 C1.31691025,12.2868007 9.48016701,17.7449755 8.5757829,23.7308528 C7.9966597,26.7316676 5.32317327,24.3451928 5.13277662,29 C37.9609255,29 54.375,29 54.375,29 C54.375,29 55.25,26.1882129 57,20.5646388 C51.5895616,19.1548072 45.9093946,17.0439978 40.6734864,15.0277023 Z M13.1294363,16.3036393 C11.8601253,16.3036393 10.8367432,15.3033677 10.8367432,14.0668115 C10.8367432,12.8381315 11.8601252,11.8378599 13.1294363,11.8378599 C14.3987474,11.8378599 15.4221295,12.8381315 15.4221294,14.0668115 C15.4221294,15.3033677 14.3987474,16.3036393 13.1294363,16.3036393 Z M17.3974948,3.53639328 L27.5440501,3.53639328 L24.7674322,6.43481802 C30.5348643,8.19120041 36.2626305,10.4752852 41.9824634,12.6727322 C45.4730688,14.0116784 49.1699374,15.3900054 52.8509395,16.5714286 L52.8509395,13.4839761 L48.5194154,11.4834329 L48.5194154,7.63199349 L34.2872651,0 L22.4509395,0 L21.2609603,2.19744703 L16.5803758,2.19744703 L15.2872651,3.19771864 L16.0885177,3.44975555 L17.3974948,3.53639328 Z" id="Shape"></path>
                    </g>
                    <g id="租赁成交管理-copy" transform="translate(0.000000, 33.000000)" fill="#FFFFFF">
                        <path d="M66.2913231,0.889465536 C64.2782882,-0.480327457 61.3628583,-0.242102589 59.6968983,1.42547149 L51.7835885,9.10822349 L51.7835885,9.22733593 C51.5753435,12.9793776 47.9657636,15.8976322 43.5926188,15.8976322 L35.054574,15.8976322 C34.082764,15.7785198 33.3886141,15.0638452 33.5274441,14.2300582 C33.596859,13.5749398 34.221594,13.0389338 35.054574,12.9198214 L43.5926188,12.9198214 C46.0915587,12.9793776 48.1045936,11.3118035 48.3128386,9.16777971 C48.3822536,7.0237559 46.4386337,5.23706938 43.9396938,5.17751317 L29.5013742,5.17751317 L27.2106792,4.46283856 C21.3798194,2.73570827 14.9242246,3.98638882 10.5510797,7.67887428 L0,16.6718631 L14.7159796,29 L18.8808795,25.426627 L42.6208088,25.426627 C45.8138987,25.426627 48.8681586,24.2355026 51.0200236,22.151035 L66.8466431,6.60686238 C68.5126031,4.9392883 68.3737731,2.43792718 66.4301531,0.949021753 C66.3607381,0.949021753 66.2913231,0.889465536 66.2913231,0.889465536 Z" id="Shape"></path>
                    </g>
                </g>
            </g>
        </g>
    </g>
</svg>