<?xml version="1.0" encoding="UTF-8"?>
<svg width="111px" height="111px" viewBox="0 0 111 111" version="1.1" xmlns="http://www.w3.org/2000/svg" xmlns:xlink="http://www.w3.org/1999/xlink">
    <!-- Generator: Sketch 49.2 (51160) - http://www.bohemiancoding.com/sketch -->
    <title>53</title>
    <desc>Created with Sketch.</desc>
    <defs></defs>
    <g id="Page-1" stroke="none" stroke-width="1" fill="none" fill-rule="evenodd">
        <g id="平台服务-copy" transform="translate(-80.000000, -1626.000000)" fill="#000000" fill-rule="nonzero">
            <g id="诚信" transform="translate(80.000000, 1626.000000)">
                <g id="Group-8" transform="translate(13.000000, 15.000000)">
                    <path d="M8,68.5 C8.0153495,68.3330079 8.0358155,68.166748 8.053212,68 C8.0179075,68.1643066 8,68.331299 8,68.5 Z" id="Shape"></path>
                    <path d="M85.0652894,64.6458567 L70.0665214,37.9457538 C71.0969015,35.0034557 71.6586535,31.838055 71.6586535,28.5445311 C71.6586535,12.7789347 58.8284732,0 42.9998463,0 C27.1712194,0 14.3409531,12.7789347 14.3409531,28.5445311 C14.3409531,31.8380551 14.9026191,35.0013147 15.9330852,37.9457539 L0.93440321,64.6458567 C-1.22584385,68.492555 0.814021627,70.2929623 2.48010237,70.099407 C4.14824678,69.9058516 16.8981153,66.6501823 16.8981153,66.6501823 C16.8981153,66.6501823 20.2957128,78.0368888 21.6070119,80.7583112 C22.3714347,82.409441 25.0637682,82.8762862 27.082395,79.2187754 L39.6254653,56.8913103 C40.7319437,57.0216604 41.859575,57.0890622 42.9998463,57.0890622 C44.1421813,57.0890622 45.2677488,57.021746 46.3741413,56.8913103 L58.9172116,79.2187753 C60.9337747,82.8762862 63.6280858,82.4094409 64.3925947,80.7583111 C65.7059575,78.0368887 69.0993416,66.6501822 69.0993416,66.6501822 C69.0993416,66.6501822 81.8514459,69.9059372 83.5174407,70.0994069 C85.1877347,70.2928766 87.2254505,68.492555 85.0652894,64.6458567 Z M24.060732,76.3878144 L19.3561348,62.2775444 L4.93794977,65.7289102 L17.9919537,42.4927628 C21.7062407,49.0884608 27.9756262,54.0624905 35.4655946,56.0899398 L24.060732,76.3878144 Z M44.2182796,53.0530052 C43.8150014,53.0720182 43.4073378,53.0824667 42.9998463,53.0824667 C42.5901191,53.0824667 42.1847772,53.0720182 41.7814989,53.0530052 C40.3161114,52.9814925 38.8864945,52.7838263 37.4970333,52.4683996 C29.7811775,50.7143257 23.4442064,45.353271 20.3697474,38.2592108 C19.6390314,36.570312 19.0921552,34.78258 18.7543129,32.9255621 C18.4966964,31.5037868 18.3636747,30.0379049 18.3636747,28.5446168 C18.3636747,14.9915464 29.392603,4.00445456 42.9999322,4.00445456 C56.6071754,4.00445456 67.6382534,14.9915465 67.6382534,28.5446168 C67.6382534,30.0399603 67.5030821,31.5037868 67.2454656,32.9255621 C66.9075374,34.7847212 66.3607472,36.570312 65.6301171,38.2592108 C62.5555722,45.353271 56.218601,50.7143257 48.5026592,52.4683996 C47.1132841,52.7838262 45.6836671,52.9814925 44.2182796,53.0530052 Z M66.6436439,62.2775444 L61.9388746,76.3878145 L50.5361617,56.0899398 C58.0238945,54.0624904 64.2932799,49.0884608 68.0076529,42.4927628 L81.0616568,65.7289102 L66.6436439,62.2775444 Z" id="Shape"></path>
                    <path d="M40,33.9239692 C40.3528781,33.9739197 40.7357168,34 41.1430819,34 C41.6594208,34 41.9191991,33.6547669 41.9191991,32.9643893 C41.9736146,31.6009619 42,30.2810312 42,29 L40.3475867,29 C40.3335717,30.7520689 40.2176618,32.3912406 40,33.9239692 Z" id="Shape"></path>
                    <path d="M63,28.5000864 C63,17.1781845 53.8216622,8 42.5000432,8 C31.1782515,8 22,17.1781844 22,28.5000864 C22,39.8218156 31.1782515,49 42.5000432,49 C53.8217485,49 63,39.8218155 63,28.5000864 Z M33.2008356,17.0616311 C34.1867018,18.3443218 35.1895761,19.7563436 36.2093722,21.3020131 C35.1577183,21.9762092 34.2376398,22.5676957 33.4489641,23.0765588 C32.5775789,21.5987492 31.6489531,20.1274148 30.6630005,18.664455 L33.2008356,17.0616311 Z M30.8602774,36.9299122 C31.3372816,36.3892775 31.583338,35.689526 31.6002598,34.8351471 L31.6002598,27.5882941 L30.022822,27.5882941 L30.022822,24.3337805 L34.5323895,24.3337805 L34.5323895,33.0604288 C34.9946303,32.5007139 35.4694761,31.9431574 35.9614164,31.3833562 C35.9614164,32.6491251 36.0547451,33.9234413 36.2348412,35.2039736 C35.0030049,36.4209627 33.7690101,37.792752 32.5372601,39.3214134 L30.8602774,36.9299122 Z M53.8344399,39.0755291 C53.3743574,40.5214808 52.6514694,41.244543 51.6656032,41.244543 C50.136945,41.244543 48.8710925,40.0932553 47.8683045,37.7929247 C46.7680436,39.0586073 45.5849005,40.2162838 44.3192206,41.2679399 C43.6788694,40.5470361 42.9305124,39.7902166 42.0761353,39.001453 C43.8994569,37.5872728 45.5022773,36.0353008 46.8825246,34.3434648 C46.4393639,31.9264083 46.1510894,28.4090021 46.0196866,23.7912464 L40.2039478,23.7912464 L40.2039478,26.4054076 L45.0592031,26.4054076 C45.042195,27.9998568 44.9850408,30.2747184 44.8874816,33.2324097 C44.7560788,35.7151677 43.801984,37.02963 42.0273557,37.1780413 C41.1389624,37.2267347 40.4647677,37.2352819 40.0068437,37.201352 C39.9072124,36.3300513 39.7906593,35.509516 39.6612422,34.7376741 C39.1354584,37.2692119 38.2301433,39.4784583 36.9496137,41.3675715 C35.9955189,40.5471226 35.1177449,39.8474574 34.3120611,39.2728928 C36.2351002,36.8410728 37.1870366,33.4805388 37.1701148,29.1913771 L37.1701148,20.7360821 L45.9475963,20.7360821 C45.9306746,19.5020848 45.9306746,18.2044579 45.9475963,16.8413023 L49.1766341,16.8413023 C49.1427043,18.2215525 49.1257825,19.5190066 49.1257825,20.7360821 L51.4431164,20.7360821 C50.8854747,20.2102972 50.1795085,19.5698584 49.3228867,18.8130389 L51.0742043,17.0384069 C52.1597019,17.8928721 53.1349488,18.7070186 54.006334,19.4787741 L52.7490287,20.7360821 L54.3264665,20.7360821 L54.3264665,23.7912464 L49.1510789,23.7912464 C49.1828504,26.3714776 49.2909425,28.5977321 49.4712112,30.4719956 C50.2768087,29.0429657 50.9425425,27.5227652 51.4683264,25.9113942 L54.2034382,27.071229 C53.0543113,29.9462106 51.7058356,32.5179809 50.1623277,34.7864536 C50.310825,35.3611046 50.4824601,35.8635788 50.679737,36.2896459 C50.9085263,36.8325253 51.2055208,37.1441111 51.5659719,37.2267345 C51.9114869,37.2267345 52.1341465,37.0295436 52.2317057,36.635248 C52.3970384,35.7807828 52.5115194,34.6868221 52.5773071,33.3552652 C53.1348624,33.6860176 53.8005963,34.0295477 54.5745086,34.3920716 C54.4090033,36.0839078 54.1631195,37.6464128 53.8344399,39.0755291 Z" id="Shape"></path>
                </g>
            </g>
        </g>
    </g>
</svg>