<?xml version="1.0" encoding="UTF-8"?>
<svg width="111px" height="111px" viewBox="0 0 111 111" version="1.1" xmlns="http://www.w3.org/2000/svg" xmlns:xlink="http://www.w3.org/1999/xlink">
    <!-- Generator: Sketch 49.2 (51160) - http://www.bohemiancoding.com/sketch -->
    <title>54</title>
    <desc>Created with Sketch.</desc>
    <defs></defs>
    <g id="Page-1" stroke="none" stroke-width="1" fill="none" fill-rule="evenodd">
        <g id="平台服务-copy" transform="translate(-356.000000, -1626.000000)" fill="#000000" fill-rule="nonzero">
            <g id="团队" transform="translate(356.000000, 1626.000000)">
                <path d="M19.78575,35.9034482 C12.7649999,35.9034482 7.06237502,41.5724138 7.06237502,48.5517241 C7.06237502,55.5448275 12.7650001,61.1999999 19.78575,61.1999999 C26.820375,61.1999999 32.509125,55.5448275 32.509125,48.5517241 C32.509125,41.5724138 26.820375,35.9034482 19.78575,35.9034482 Z M14.1386249,65.4206897 C6.32700004,65.4206897 0,71.7103448 0,79.4758621 L0,86 L19.39725,86 L23.1296249,68.7172413 C23.39325,67.5448275 23.83725,66.4275862 24.4199999,65.4206896 L14.1386249,65.4206897 Z M91.21425,35.9034482 C84.179625,35.9034482 78.490875,41.5724138 78.490875,48.5517241 C78.490875,55.5448275 84.179625,61.1999999 91.21425,61.1999999 C98.2350001,61.1999999 103.937625,55.5448275 103.937625,48.5517241 C103.937625,41.5724138 98.2350001,35.9034482 91.21425,35.9034482 Z M96.8613751,65.4206897 L87.8842501,65.4206897 C88.4670001,66.4275863 88.9110001,67.5310345 89.174625,68.6896552 L92.907,86 L111,86 L111,79.4758621 C111,71.7103448 104.673,65.4206897 96.8613751,65.4206897 Z M70.9165125,40.6703448 C70.9165125,48.7724138 64.3092375,55.3406896 56.1590626,55.3406896 C48.0088876,55.3406896 41.4016126,48.7724137 41.4016126,40.6703448 C41.4016126,32.5682759 48.0075,26 56.157675,26 C64.3078501,26 70.9165125,32.5682758 70.9165125,40.6703448 Z M56.157675,65.497931 C57.0664875,65.497931 58.2070126,65.497931 58.8882751,64.8206896 C59.5695376,64.1434482 60.6934126,62.337931 60.6989626,60.9834482 C60.7045126,59.4041378 57.9267376,59.177931 56.157675,59.177931 C54.3886125,59.177931 51.6108375,59.4041379 51.6163875,60.9834482 C51.6219375,62.337931 52.7458125,64.1434482 53.427075,64.8206896 C54.1083375,65.497931 55.25025,65.497931 56.157675,65.497931 Z M22.2402375,86 L25.84635,69.297931 C26.6677499,65.6496552 29.6661374,62.8827587 33.3874124,62.337931 L46.5089999,60.4193103 L53.0899124,75.4275862 L53.8516499,67.9406896 C53.8724624,67.7075862 54.0680998,67.5282757 54.3039749,67.5282757 L58.0169249,67.5282757 C58.2500249,67.5282757 58.4456624,67.7048275 58.4692499,67.9351722 L59.3086875,75.2413791 L65.8077375,60.4193102 L78.9293249,62.3379309 C82.6505999,62.8813791 85.6489875,65.649655 86.4703874,69.2979309 L90.0765,86 L22.2402375,86 Z" id="Shape"></path>
            </g>
        </g>
    </g>
</svg>