<?xml version="1.0" encoding="UTF-8"?>
<svg width="111px" height="111px" viewBox="0 0 111 111" version="1.1" xmlns="http://www.w3.org/2000/svg" xmlns:xlink="http://www.w3.org/1999/xlink">
    <!-- Generator: Sketch 49.2 (51160) - http://www.bohemiancoding.com/sketch -->
    <title>55</title>
    <desc>Created with Sketch.</desc>
    <defs></defs>
    <g id="Page-1" stroke="none" stroke-width="1" fill="none" fill-rule="evenodd">
        <g id="平台服务-copy" transform="translate(-631.000000, -1626.000000)" fill="#000000" fill-rule="nonzero">
            <g id="品牌认证" transform="translate(631.000000, 1626.000000)">
                <path d="M63.2567386,49.1809642 C63.9303669,48.3020495 64.3793273,47.2032525 64.3793273,45.885065 C64.3793273,44.786268 63.930367,43.9072304 63.4812815,43.0284388 C63.0323211,42.3694065 62.133399,41.7102513 61.2354783,41.2708555 C60.3370569,40.8312137 58.3161719,40.6118232 55.6212833,40.6118232 L48.2106209,40.6118232 L48.2106209,51.3783122 L55.3968657,51.3783122 C57.4178757,51.3783122 58.9898003,51.1585528 60.3371821,50.9385474 C61.4603965,50.719157 62.5829851,50.0600018 63.2567386,49.1809642 Z M55.5,16 L23,26.3358245 L23.1645896,66.5851217 L23.2013876,67.0210742 C23.2604646,67.2857201 24.5103442,73.6801408 30.763998,79.8395528 C35.5723925,84.5882989 47.3630156,90.7903839 52.3947012,93.4378268 C53.1853571,93.8548408 53.7747506,94.1626515 54.113317,94.3515438 L55.3076242,95 L56.7744117,94.2542692 C59.7156215,92.8100305 74.6733741,85.3289876 80.2318716,79.84853 C86.4920338,73.6830921 87.7420387,67.2890404 87.7949827,67.0240256 L88,26.3388989 L55.5,16 Z M72.9122029,73.1306807 C72.6880356,73.5703225 72.2386997,74.0095954 71.5646959,74.2294777 C70.8911928,74.4489912 70.2176896,74.6687506 69.543811,74.6687506 C68.6457651,74.6687506 67.9718864,74.4493601 67.2983833,74.0097183 C66.6245047,73.5704455 66.1754191,73.1308037 65.7260833,72.4716485 C65.2773732,71.8128622 64.6031191,70.9334557 63.9298663,69.6152682 L60.7860171,64.3419034 C59.6630529,62.3641918 58.5405895,60.8264908 57.642168,59.9472073 C56.7437466,59.0685386 55.8454504,58.4095064 54.9472793,57.9702335 C54.0488579,57.5305917 52.7014762,57.3110783 51.3540944,57.3110783 L48.4350383,57.3110783 L48.4350383,69.8351506 C48.4350383,71.3732204 47.9859528,72.4720174 47.3120741,73.3505632 C46.638571,74.0100873 45.5156068,74.4494832 44.3927678,74.4494832 C43.270179,74.4494832 42.1473401,74.0102103 41.4737117,73.1315417 C40.7998331,72.4721405 40.3507475,71.1538301 40.3507475,69.6153912 L40.3507477,39.7324167 C40.3507477,37.9745875 40.799708,36.6559081 41.4737119,35.9971217 C42.3717578,35.3375976 43.4945968,34.8979558 45.2911893,34.8979558 L58.3160467,34.8979558 C59.70298,34.8979558 60.9563643,34.8979558 62.0754483,34.9994116 C62.4058792,35.029295 62.724795,35.0676637 63.0318203,35.1178382 C64.1547845,35.3375976 65.277248,35.55748 66.3998367,35.9971217 C67.7477191,36.4363946 68.8705581,37.3153092 69.7686041,38.1943468 C70.8915683,39.0728925 71.5654469,40.1716895 72.0144072,41.489877 C72.4634927,42.5886741 72.6879103,44.1267439 72.6879103,45.4449314 C72.6879103,48.5214401 71.7898645,50.7186651 70.2180651,52.4762484 C68.4214726,54.2342006 65.9508763,55.55288 62.5824845,56.2119123 C63.9303669,56.8709446 65.2776235,57.9698645 66.6251304,59.5075655 C67.7477191,61.0460043 68.8705581,62.5837052 69.9931468,64.122021 C70.8915683,65.6605828 71.7898645,67.1986526 72.4631173,68.9561129 C73.1366204,70.2744234 73.3615387,71.1529691 73.3615387,71.5926109 C73.3616639,72.0320067 73.1367456,72.6910389 72.9122029,73.1306807 Z" id="Shape"></path>
            </g>
        </g>
    </g>
</svg>