<?xml version="1.0" encoding="UTF-8"?>
<svg width="111px" height="111px" viewBox="0 0 111 111" version="1.1" xmlns="http://www.w3.org/2000/svg" xmlns:xlink="http://www.w3.org/1999/xlink">
    <!-- Generator: Sketch 49.2 (51160) - http://www.bohemiancoding.com/sketch -->
    <title>56</title>
    <desc>Created with Sketch.</desc>
    <defs></defs>
    <g id="Page-1" stroke="none" stroke-width="1" fill="none" fill-rule="evenodd">
        <g id="平台服务-copy" transform="translate(-907.000000, -1626.000000)" fill="#FFFFFF" fill-rule="nonzero">
            <g id="金币" transform="translate(907.000000, 1626.000000)">
                <path d="M55.5000799,18 C34.7872079,18 18,34.7916759 18,55.5 C18,76.2079244 34.7872079,93 55.5000799,93 C76.2031999,93 93,76.2079244 93,55.5 C92.9999201,34.7916759 76.2032,18 55.5000799,18 Z M65.1387439,70.0213661 C63.1661199,71.4765002 60.7833519,72.575045 57.9513518,72.799662 L57.9513518,77.4240534 L52.9998881,77.4240534 L52.9998881,72.7264417 C49.9729278,72.370172 47.7950319,71.4717042 45.9592557,69.9970659 C43.5274079,68.0587256 42.785136,65.9882528 42.3069677,63.3905298 L49.7579839,61.569294 C49.7579839,64.0157803 52.287112,66.8182165 56.0569837,66.8182165 C58.3028239,66.8182165 60.9884638,65.7195918 60.9590479,62.7946954 C60.9395439,60.402405 58.4102559,58.6886016 55.6760157,58.0731831 C52.8438559,57.4383404 47.1212638,55.4902481 45.5393596,53.7519046 C43.9473838,52.0235531 43.5079038,49.5672348 43.5079038,46.7108427 C43.5079038,44.2548442 44.6018876,41.7743856 46.3789119,40.2750474 C48.107336,38.815357 50.12888,37.8777211 52.999888,37.5263275 L52.999888,33.5810625 L57.9513518,33.5810625 L57.9513518,37.5116993 C60.6660079,37.8046605 62.9024159,38.6592441 64.6212478,40.1238905 C66.759736,41.9599942 67.8436481,44.3133564 67.8436481,45.7294024 L60.4022241,47.4774179 C60.4022241,45.6417139 57.6484,43.3758004 55.7734559,43.3758004 C53.3418479,43.3758004 51.4179839,44.0596431 51.4179839,47.1012444 C51.4179839,49.2889816 53.0783038,50.0018406 55.9593037,50.9246886 C60.8029358,52.4676711 64.4746479,54.4742759 66.163984,56.2079031 C67.843728,57.9512024 68.6835999,60.1436557 68.6835999,62.7946153 C68.6836,66.0713851 67.4626802,68.2834224 65.1387439,70.0213661 Z" id="Shape"></path>
            </g>
        </g>
    </g>
</svg>