<?xml version="1.0" encoding="UTF-8"?>
<svg width="111px" height="111px" viewBox="0 0 111 111" version="1.1" xmlns="http://www.w3.org/2000/svg" xmlns:xlink="http://www.w3.org/1999/xlink">
    <!-- Generator: Sketch 49.2 (51160) - http://www.bohemiancoding.com/sketch -->
    <title>57</title>
    <desc>Created with Sketch.</desc>
    <defs></defs>
    <g id="Page-1" stroke="none" stroke-width="1" fill="none" fill-rule="evenodd">
        <g id="平台服务-copy" transform="translate(-1182.000000, -1626.000000)" fill="#000000">
            <g id="考核标准" transform="translate(1182.000000, 1626.000000)">
                <g id="Group-9" transform="translate(22.000000, 19.000000)">
                    <path d="M54.3828786,10.6519165 C54.3828786,9.18364195 53.1691299,7.9877831 51.6617696,7.9877831 L44.8647767,7.9877831 L44.8647767,10.6519165 C44.8647767,12.1224997 43.651028,13.3137414 42.1459796,13.3137414 L19.0338919,13.3137414 C17.547254,13.327837 16.3303415,12.1364249 16.3150948,10.6519165 L16.3150948,7.9877831 L8.15870334,7.9877831 C6.65596682,7.9877831 5.43990619,9.18364195 5.43990619,10.6519165 L5.43990619,61.2473658 C5.43990619,62.717949 6.65596682,63.9091906 8.15870334,63.9091906 L29.9113924,63.9091906 L35.3466748,69.2397661 L5.43759429,69.2397661 C2.43443316,69.2397661 0,66.850357 0,63.9091906 L0,7.9877831 C0,5.04661672 2.43443316,2.66182483 5.43759429,2.66182483 L16.3150948,2.66182483 C16.3150948,1.19124164 17.5311554,0 19.0338919,0 L42.1459796,0 C43.6487161,0 44.8647767,1.19124164 44.8647767,2.66182483 L54.3828786,2.66182483 C57.3860397,2.66182483 59.8227848,5.04661672 59.8227848,7.9877831 L59.8227848,40.6176462 L54.3828786,37.9558214 L54.3828786,10.6519165 Z M42.1459796,26.2916162 L17.6744933,26.2916162 C16.9309855,26.2980229 16.3227193,25.7019863 16.3150948,24.9595494 L16.3150948,23.6274827 C16.3150948,22.8933454 16.9231251,22.295416 17.6744933,22.295416 L42.1436677,22.295416 C42.8904121,22.295416 43.5053781,22.8933454 43.5053781,23.6274827 L43.5053781,24.9595494 C43.4977536,25.7019863 42.8894874,26.2980229 42.1459796,26.2916162 Z M43.50769,39.6076661 C43.4962848,40.3490296 42.8884706,40.9425815 42.1459796,40.9374242 L17.6744933,40.9374242 C16.931878,40.9438374 16.3239838,40.3491979 16.3150948,39.6076661 L16.3150948,38.2732908 C16.318137,37.91695 16.4633002,37.5765194 16.7184447,37.3273715 C16.9735891,37.0782235 17.3176652,36.9409131 17.6744933,36.9458413 L42.1436677,36.9458413 C42.8904121,36.9458413 43.5053781,37.5368449 43.5053781,38.2732908 L43.5053781,39.6076661 L43.50769,39.6076661 Z M44.2757224,60.1520468 C46.436003,62.8935887 49.6831166,64.5722553 53.180969,64.7558095 L48.5992842,74 L45.4948931,69.1120827 L39.5949367,69.5910207 L44.2757224,60.1520468 Z M63.321519,60.1520468 L68,69.5910207 L62.1000436,69.1120827 L58.9979572,74 L54.418577,64.7558095 C57.9161808,64.5736882 61.1631452,62.8946641 63.321519,60.1520468 Z M26.2203696,58.1890129 L25.6324709,58.4607789 C25.2322177,56.8055158 24.7854835,55.3506152 24.3150785,54.0852585 L24.8797367,53.8840304 C25.3970532,55.2324749 25.8442177,56.6635743 26.2203696,58.1890129 Z M20.3276101,49.9577029 L20.3276101,49.3306503 L25.6440911,49.3306503 L25.6440911,49.9577029 L20.3276101,49.9577029 Z M21.1629772,59.2297731 L21.0334329,58.6265216 C21.4220658,58.6503228 21.7982177,58.674124 22.1511291,58.674124 C22.4803696,58.674124 22.6568253,58.4845801 22.6568253,58.1297263 L22.6568253,52.8553871 L19.7164709,52.8553871 L19.7164709,52.2287673 L26.2556608,52.2287673 L26.2556608,52.8553871 L23.2916354,52.8553871 L23.2916354,58.2837848 C23.2916354,58.9104047 22.9740152,59.2297731 22.3624456,59.2297731 L21.1629772,59.2297731 Z M21.4332557,54.0614573 C21.0454835,55.717586 20.4924456,57.1482526 19.7633823,58.3547556 L19.1987241,57.9999018 C19.9394076,56.7933988 20.4924456,55.4453871 20.845357,53.943317 L21.4332557,54.0614573 Z M17.9988253,48.5975743 L17.9988253,50.904124 L19.445762,50.904124 L19.445762,51.5307439 L17.9988253,51.5307439 L17.9988253,52.5243345 C18.5871544,53.1392702 19.1750532,53.8368608 19.7633823,54.605855 L19.3984203,55.1498199 C18.8578633,54.3215392 18.3874582,53.6832351 17.9988253,53.2102409 L17.9988253,59.3479135 L17.3756354,59.3479135 L17.3756354,53.0090129 C16.9758127,54.2743696 16.4464456,55.4099018 15.7759139,56.4034924 L15.4935848,55.7292702 C16.3874835,54.4872819 17.0111038,53.0921006 17.3640152,51.5307439 L15.8585468,51.5307439 L15.8585468,50.904124 L17.3756354,50.904124 L17.3756354,48.5975743 L17.9988253,48.5975743 Z" id="Combined-Shape" fill-rule="nonzero"></path>
                    <path d="M53.7170492,41.0022531 C49.9148253,40.9236393 46.3672947,42.9071269 44.4431263,46.1874688 C42.5189579,49.4678107 42.5189579,53.5321893 44.4431263,56.8125312 C46.3672947,60.0928731 49.9148253,62.0763607 53.7170492,61.9977469 C59.4302293,61.8796226 64,57.214396 64,51.5 C64,45.785604 59.4302293,41.1203774 53.7170492,41.0022531 Z M57.524421,56.9519181 L53.6901261,54.8407021 L49.8333953,56.9137772 L50.650062,52.6150631 L47.4933312,49.5862197 L51.8346774,49.0387843 L53.7372415,45.0968007 L55.6039082,49.056733 L59.9407671,49.6467965 L56.7503825,52.6464733 L57.524421,56.9519181 Z" id="Shape" fill-rule="nonzero"></path>
                    <path d="M35.1797748,50.1239571 L34.6152811,50.3451728 C34.4070735,49.615733 34.1616219,48.8862932 33.8672595,48.1825983 L34.5174594,48 C34.7992576,48.7818832 35.0204781,49.4855781 35.1797748,50.1239571 Z M31.6725545,58.6188319 L34.4075222,58.6188319 L34.4075222,56.4300358 L31.6725545,56.4300358 L31.6725545,58.6188319 Z M31.6725545,55.7783075 L34.4075222,55.7783075 L34.4075222,53.7587604 L31.6725545,53.7587604 L31.6725545,55.7783075 Z M31.6725545,53.0946365 L34.4075222,53.0946365 L34.4075222,51.1008343 L31.6725545,51.1008343 L31.6725545,53.0946365 Z M31.6725545,60 L31.0223546,60 L31.0223546,51.9346841 C30.6301705,52.6517282 30.2007424,53.3292014 29.7107367,53.9804529 L29.4895162,53.2510131 C30.5812597,51.6743743 31.353961,49.954708 31.8071714,48.0781883 L32.444807,48.2083433 C32.248715,48.977354 32.0158277,49.720143 31.7335808,50.4233611 L37.7303174,50.4233611 L37.7303174,51.1008343 L35.0572734,51.1008343 L35.0572734,53.0946365 L37.4853145,53.0946365 L37.4853145,53.7592372 L35.0572734,53.7592372 L35.0572734,55.7783075 L37.5095456,55.7783075 L37.5095456,56.4300358 L35.0572734,56.4300358 L35.0572734,58.6188319 L38,58.6188319 L38,59.2834327 L31.6725545,59.2834327 L31.6725545,60 Z M29.6366974,54.4753278 C29.0484213,56.4038141 28.3735416,58.2016687 27.6376356,59.8827175 L27.0125642,59.5961859 C27.7973811,57.850298 28.471812,56.0519666 29.0484213,54.2278903 L29.6366974,54.4753278 Z M29.5631068,51.5179976 L29.011626,51.9218117 C28.5207229,51.0359952 27.8588562,50.0586412 27,48.977354 L27.564045,48.6126341 C28.4350167,49.720143 29.0968834,50.6841478 29.5631068,51.5179976 Z" id="Fill-4"></path>
                </g>
            </g>
        </g>
    </g>
</svg>