<?xml version="1.0" encoding="UTF-8"?>
<svg width="111px" height="111px" viewBox="0 0 111 111" version="1.1" xmlns="http://www.w3.org/2000/svg" xmlns:xlink="http://www.w3.org/1999/xlink">
    <!-- Generator: Sketch 49.2 (51160) - http://www.bohemiancoding.com/sketch -->
    <title>58</title>
    <desc>Created with Sketch.</desc>
    <defs></defs>
    <g id="Page-1" stroke="none" stroke-width="1" fill="none" fill-rule="evenodd">
        <g id="平台服务-copy" transform="translate(-1454.000000, -1625.000000)" fill="#000000" fill-rule="nonzero">
            <g id="培训" transform="translate(1454.000000, 1625.000000)">
                <g id="Group-10" transform="translate(20.000000, 20.000000)">
                    <path d="M19.3009468,20.7874564 C21.0704113,26.4041812 25.9903857,26.4041812 27.7166925,20.7874564 C28.2777422,20.4703833 28.8819496,19.5191638 28.9682649,18.7491289 C29.0545803,17.9337979 29.0114226,16.8466899 28.2345845,16.8466899 C28.0619539,14.2195122 26.6809084,12 23.5735562,12 C20.5093616,12 18.9556855,13.9477352 18.7830548,16.8466899 C18.0062167,16.8466899 17.9199014,17.9337979 18.0493744,18.7491289 C18.1356897,19.5191638 18.7398971,20.4703833 19.3009468,20.7874564 Z" id="Shape"></path>
                    <path d="M30.7347787,50.1304348 C32.8565489,50.1304348 34.6171666,48.4347826 34.6171666,46.3913043 L34.6171666,46.2608696 L49.6952777,31.7391304 C50.1015741,31.3478261 50.1015741,30.6956522 49.6952777,30.3043478 C49.2889813,29.9130435 48.6118206,29.9130435 48.2055242,30.3043478 L34.5720226,43.3913043 L34.5720226,31.0434783 C34.5720226,28.3478261 32.5405405,26.0434783 29.6964657,25.4347826 L27.6198396,25 C25.8140778,28.4347826 20.7128007,28.4347826 18.952183,25 L16.8755569,25.4347826 C14.031482,26 12,28.3478261 12,31.0434783 L12,46.3913043 C12,48.4347826 13.7154737,50.1304348 15.8823879,50.1304348 C15.8823879,51.173913 16.7401247,52 17.8235818,52 L28.7935848,52 C29.8770419,52 30.7347787,51.1304348 30.7347787,50.1304348 Z" id="Shape"></path>
                    <path d="M6.33990148,48.868179 C7.98029557,49.5744942 9.84236453,48.4267321 9.84236453,46.6167995 C9.84236453,45.822195 9.3546798,45.1600245 8.60098522,44.8951563 C6.25123153,44.0564071 4.52216749,41.8491723 4.52216749,39.2004905 L4.52216749,10.5505825 C4.52216749,7.19558553 7.22660099,4.50275904 10.5960591,4.50275904 L61.137931,4.50275904 C64.5073892,4.50275904 67.2118227,7.19558553 67.2118227,10.5505825 L67.2118227,39.2004905 C67.2118227,42.5554874 64.5073892,45.2483139 61.137931,45.2483139 L41.0098522,45.2483139 C39.7684729,45.2483139 38.7487685,46.2636419 38.7487685,47.4996934 C38.7487685,48.7357449 39.7684729,49.751073 41.0098522,49.751073 L61.182266,49.751073 C67.0344828,49.751073 71.7783251,45.0275904 71.7783251,39.2004905 L71.7783251,10.5505825 C71.7783251,4.72348253 67.0344828,0 61.182266,0 L10.6403941,0 C4.78817734,0 0.0443349754,4.72348253 0.0443349754,10.5505825 L0.0443349754,39.2004905 C-1.43635104e-15,43.5266708 2.61576355,47.2348253 6.33990148,48.868179 Z M14.8522167,56.0196199 L6.91625616,56.0196199 C3.10344828,56.0196199 0,59.1097486 0,62.9061925 L0,72 L21.7684729,72 L21.7684729,62.9061925 C21.7684729,59.1097486 18.6650246,56.0196199 14.8522167,56.0196199 Z M39.9458128,56.0196199 L32.0541872,56.0196199 C28.2413793,56.0196199 25.137931,59.1097486 25.137931,62.9061925 L25.137931,72 L46.9064039,72 L46.9064039,62.9061925 C46.862069,59.1097486 43.7586207,56.0196199 39.9458128,56.0196199 Z M65.0394089,56.0196199 L57.1477833,56.0196199 C53.3349754,56.0196199 50.2315271,59.1097486 50.2315271,62.9061925 L50.2315271,72 L72,72 L72,62.9061925 C72,59.1097486 68.8965517,56.0196199 65.0394089,56.0196199 Z" id="Shape"></path>
                </g>
            </g>
        </g>
    </g>
</svg>