<?xml version="1.0" encoding="UTF-8"?>
<svg width="111px" height="111px" viewBox="0 0 111 111" version="1.1" xmlns="http://www.w3.org/2000/svg" xmlns:xlink="http://www.w3.org/1999/xlink">
    <!-- Generator: Sketch 49.2 (51160) - http://www.bohemiancoding.com/sketch -->
    <title>59</title>
    <desc>Created with Sketch.</desc>
    <defs>
        <polygon id="path-1" points="0 0 90 0 90 66 0 66"></polygon>
    </defs>
    <g id="Page-1" stroke="none" stroke-width="1" fill="none" fill-rule="evenodd">
        <g id="平台服务-copy" transform="translate(-1726.000000, -1626.000000)">
            <g id="Page-1-Copy-7" transform="translate(1726.000000, 1626.000000)">
                <g id="Group-28" transform="translate(11.000000, 23.000000)">
                    <mask id="mask-2" fill="white">
                        <use xlink:href="#path-1"></use>
                    </mask>
                    <g id="Clip-2"></g>
                    <path d="M1.0526668,31.2822713 L6.11336016,33.9133967 C6.11336016,33.9133967 8.40849356,35.2463518 9.62436193,32.7525021 L22.142661,6.2750543 C22.142661,6.2750543 23.3241537,4.01594099 21.3904262,2.95205488 L15.8665406,0.22940333 C15.8665406,0.22940333 14.1531092,-0.737488011 13.0448976,1.2987854 C13.005546,2.1169432 0.19866358,28.2740766 0.19866358,28.2740766 C0.19866358,28.2740766 -0.615534355,30.4188027 1.0526668,31.2822713" id="Fill-1" fill="#161519" mask="url(#mask-2)"></path>
                    <path d="M82.1180319,34.0787935 L87.1765151,31.661735 C87.1765151,31.661735 89.5948304,30.6493287 88.4353717,28.1222291 L75.8060097,1.66163 C75.8060097,1.66163 74.7965342,-0.68637002 72.8055278,0.199888878 L67.3973928,2.92172551 C67.3973928,2.92172551 65.6224781,3.69288245 66.4877448,5.84522155 C67.0925519,6.38617456 79.3172186,32.8988019 79.3172186,32.8988019 C79.3172186,32.8988019 80.4482894,34.87895 82.1180319,34.0787935" id="Fill-3" fill="#161519" mask="url(#mask-2)"></path>
                    <path d="M12.5,34.2823703 L14.1875906,30.6548825 L20.1186078,38.2514477 C20.1186078,38.2514477 23.9754479,37.3526444 25.3262343,39.7979538 C25.3262343,39.7979538 26.604383,41.2816951 26.049625,44.0904331 C26.049625,44.0904331 26.8456535,44.6817471 26.9017197,45.0456389 C26.9017197,45.0456389 29.5588982,44.3974591 31.1563432,46.3024076 C31.1563432,46.3024076 32.6250844,47.4963978 32.4515249,49.8048015 C32.4515249,49.8048015 33.505436,50.265109 33.7238376,50.8960002 C33.7238376,50.8960002 36.3361741,50.2423709 37.5977242,51.7775148 C37.5977242,51.7775148 39.144939,53.2498815 39.0328337,54.9615068 L41.4545642,56.7522769 C41.4545642,56.7522769 43.7081233,56.9455905 44.0781112,58.7368156 L46.2473606,60.362927 C46.2473606,60.362927 49.7176277,61.755698 49.9194307,58.2364732 L41.7626635,51.9421694 C41.7626635,51.9421694 40.8042861,49.4067957 43.791985,49.7988888 L55.9455202,58.4752726 C55.9455202,58.4752726 57.9299996,59.3335873 59.1296611,57.4236443 C59.1296611,57.4236443 60.3015134,55.7688766 58.6363438,53.9890233 L45.7150237,44.5166402 C45.7150237,44.5166402 44.5768165,41.8675595 47.5089107,42.0717804 L62.8407508,53.0793102 C62.8407508,53.0793102 65.0216586,53.9549093 65.9410299,52.3119671 C65.9410299,52.3119671 67.1796975,50.6685644 65.9410299,48.9687768 L49.0054475,36.4429285 C49.0054475,36.4429285 47.9910174,33.4408824 51.1581118,34.2145918 L68.609419,46.8250303 C68.609419,46.8250303 71.2495646,47.6669678 72.4326275,45.4832082 C72.4326275,45.4832082 73.9237897,43.1411536 71.9168892,41.2021048 L47.2227846,19.3517025 C47.2227846,19.3517025 42.6371792,17.1229027 39.8961389,21.7797233 C39.8961389,21.7797233 39.4140322,29.3589999 31.1115011,30.7463119 C31.1115011,30.7463119 25.438353,30.3028298 26.7613438,26.5329733 C26.7613438,26.5329733 28.4265134,24.2987239 28.2807631,19.6023261 C28.2807631,19.6023261 28.4713555,16.2304754 30.7751448,13.3535094 L21.8842378,13.3535094 L23.8409081,9.242976 L37.2667559,9.242976 C37.2667559,9.242976 42.7829295,6.0703462 46.9483168,6.3655468 C46.9483168,6.3655468 52.3689839,6.6612106 53.8265009,7.50268487 C53.8265009,7.50268487 61.0078577,9.83382677 64.2256302,9.28800268 L76.25,34.5498192 L74.3440078,38.9619291 C74.3440078,38.9619291 77.859117,42.6294436 75.2633656,47.081117 C74.5404362,48.570771 72.6904966,50.0149487 69.6574942,50.145492 C69.6574942,50.145492 70.1171798,53.1479932 67.9927725,54.8364212 C67.9927725,54.8364212 66.4285112,57.0142735 62.6389342,56.4111341 C62.6389342,56.4111341 62.8577973,59.0552148 60.3517436,60.8177836 C60.3517436,60.8177836 57.3640311,63.4218375 52.7560047,60.2433004 C52.7560047,60.2433004 52.021417,63.2226098 48.3385843,63.8371211 C48.3385843,63.8371211 45.6531351,64.2633215 44.0893217,62.7281802 C44.0893217,62.7281802 41.2751823,68.1014004 37.2667559,65.0761499 C37.2667559,65.0761499 34.7328931,62.9442374 36.5155695,59.930814 C36.5155695,59.930814 33.0959805,65.4004626 29.037324,61.2894697 C29.037324,61.2894697 26.7896009,59.5728417 28.8749886,55.9849338 C28.8749886,55.9849338 25.6513801,59.6979273 22.1030872,56.3319893 C22.1030872,56.3319893 19.6867313,54.3301661 21.6151581,50.6003364 C21.6151581,50.6003364 18.3247208,54.546677 14.4898675,50.7822823 C14.4898675,50.7822823 12.8811998,49.2758028 13.8063922,45.9271535 L17.5174819,40.7813609 L12.5,34.2823703 Z" id="Fill-4" fill="#161519" mask="url(#mask-2)"></path>
                </g>
            </g>
        </g>
    </g>
</svg>