<?xml version="1.0" encoding="UTF-8"?>
<svg width="32px" height="32px" viewBox="0 0 32 32" version="1.1" xmlns="http://www.w3.org/2000/svg" xmlns:xlink="http://www.w3.org/1999/xlink">
    <!-- Generator: Sketch 49.2 (51160) - http://www.bohemiancoding.com/sketch -->
    <title>6</title>
    <desc>Created with Sketch.</desc>
    <defs></defs>
    <g id="Page-1" stroke="none" stroke-width="1" fill="none" fill-rule="evenodd">
        <g id="首页" transform="translate(-1827.000000, -374.000000)" fill="#FFFFFF" fill-rule="nonzero">
            <g id="邮箱-2" transform="translate(1827.000000, 374.000000)">
                <g id="Group-24" transform="translate(1.000000, 6.000000)">
                    <path d="M28.4060615,0 L2.59393853,0 C1.16417378,0 0,1.16199853 0,2.59376645 L0,18.4084448 C0,19.8402127 1.16417378,21 2.59393853,21 L28.4060615,21 C29.842466,21 31,19.8402127 31,18.4084448 L31,2.59376645 C30.9988934,1.16199853 29.8413594,0 28.4060615,0 Z M27.1024524,2.21564705 L17.3895691,10.8206276 C16.5418913,11.5768664 15.913326,11.9494577 15.5094063,11.9494577 C15.1054867,11.9494577 14.4769214,11.5757608 13.6303502,10.8206276 L3.91636026,2.21564705 L27.1024524,2.21564705 Z M2.25973655,17.5648626 L2.25973655,3.85969253 L9.97072788,10.6171949 L2.25973655,17.5648626 Z M4.15317888,18.7567126 L11.6539107,12.1020322 L12.8833756,13.1800042 C13.5971513,13.8024639 14.4758148,14.1230915 15.510513,14.1230915 C16.5507443,14.1230915 17.4238746,13.8035695 18.1409703,13.1800042 L19.3704352,12.1020322 L26.8700603,18.7567126 L4.15317888,18.7567126 Z M28.7612894,17.5648626 L21.0491914,10.6183005 L28.7612894,3.86079815 L28.7612894,17.5648626 Z" id="Shape"></path>
                </g>
            </g>
        </g>
    </g>
</svg>