<?xml version="1.0" encoding="UTF-8"?>
<svg width="212px" height="212px" viewBox="0 0 212 212" version="1.1" xmlns="http://www.w3.org/2000/svg" xmlns:xlink="http://www.w3.org/1999/xlink">
    <!-- Generator: Sketch 49.2 (51160) - http://www.bohemiancoding.com/sketch -->
    <title>61</title>
    <desc>Created with Sketch.</desc>
    <defs>
        <polygon id="path-1" points="0 0 92 0 92 70 0 70"></polygon>
    </defs>
    <g id="Page-1" stroke="none" stroke-width="1" fill="none" fill-rule="evenodd">
        <g id="平台服务-copy" transform="translate(-260.000000, -2574.000000)">
            <g id="Group-13" transform="translate(261.000000, 2575.000000)">
                <g id="Group-14">
                    <circle id="Oval-3" stroke="#46B5D8" stroke-width="2" fill="#FFFFFF" cx="105" cy="105" r="105"></circle>
                    <g id="Page-1-Copy-8" transform="translate(60.000000, 74.000000)">
                        <g id="Group-28">
                            <mask id="mask-2" fill="white">
                                <use xlink:href="#path-1"></use>
                            </mask>
                            <g id="Clip-2"></g>
                            <path d="M1.07605939,33.1781666 L6.24921261,35.968754 C6.24921261,35.968754 8.59534897,37.3824943 9.83823663,34.7375022 L22.6347201,6.65536062 C22.6347201,6.65536062 23.8424682,4.25933135 21.865769,3.1309673 L16.2191304,0.243306562 C16.2191304,0.243306562 14.4676228,-0.782184254 13.3347842,1.37749967 C13.2945581,2.24524279 0.203078326,29.987657 0.203078326,29.987657 C0.203078326,29.987657 -0.629212897,32.2623665 1.07605939,33.1781666" id="Fill-1" fill="#46B5D8" mask="url(#mask-2)"></path>
                            <path d="M83.942877,36.1441749 L89.113771,33.5806281 C89.113771,33.5806281 91.5858266,32.5068638 90.4006022,29.8266066 L77.4905877,1.76233485 C77.4905877,1.76233485 76.4586794,-0.727968203 74.4234284,0.212003356 L68.8951126,3.09879978 C68.8951126,3.09879978 67.0807554,3.9166935 67.9652503,6.1994774 C68.5834975,6.77321544 81.0798235,34.8926687 81.0798235,34.8926687 C81.0798235,34.8926687 82.2360292,36.9928258 83.942877,36.1441749" id="Fill-3" fill="#46B5D8" mask="url(#mask-2)"></path>
                            <path d="M12.7777778,36.3600897 L14.5028704,32.5127542 L20.565688,40.5697172 C20.565688,40.5697172 24.5082356,39.6164411 25.8890395,42.209951 C25.8890395,42.209951 27.1955915,43.783616 26.6285056,46.7625805 C26.6285056,46.7625805 27.4422236,47.3897317 27.4995357,47.7756776 C27.4995357,47.7756776 30.2157626,47.0882142 31.8487064,49.1086141 C31.8487064,49.1086141 33.3500862,50.3749673 33.1726699,52.8232744 C33.1726699,52.8232744 34.2500013,53.3114793 34.4732562,53.9806062 C34.4732562,53.9806062 37.1436446,53.2873631 38.4332291,54.915546 C38.4332291,54.915546 40.0148265,56.4771471 39.90023,58.2925073 L42.3757767,60.1918088 C42.3757767,60.1918088 44.6794149,60.3968384 45.0576248,62.2966226 L47.2750798,64.0212862 C47.2750798,64.0212862 50.8224639,65.4984676 51.0287513,61.7659564 L42.6907227,55.0901796 C42.6907227,55.0901796 41.711048,52.401147 44.7651403,52.8170033 L57.1887539,62.0192285 C57.1887539,62.0192285 59.2173329,62.9295623 60.4436535,60.9038652 C60.4436535,60.9038652 61.641547,59.1488086 59.9393737,57.2610854 L46.7309132,47.2146184 C46.7309132,47.2146184 45.5674124,44.4049874 48.5646643,44.6215852 L64.2372119,56.296238 C64.2372119,56.296238 66.4665844,57.2249038 67.4063862,55.4823893 C67.4063862,55.4823893 68.6725797,53.7393864 67.4063862,51.9365815 L50.0944574,38.6515909 C50.0944574,38.6515909 49.0574845,35.4676025 52.2949588,36.2882035 L70.1340728,49.6629109 C70.1340728,49.6629109 72.8328883,50.5558749 74.0422414,48.2397663 C74.0422414,48.2397663 75.5665406,45.755769 73.5150423,43.6992021 L48.2721798,20.524533 C48.2721798,20.524533 43.5846721,18.1606543 40.7827197,23.0997066 C40.7827197,23.0997066 40.2898996,31.1383332 31.8028678,32.6097247 C31.8028678,32.6097247 26.0036498,32.1393649 27.3560404,28.1410323 C27.3560404,28.1410323 29.0582137,25.7713738 28.9092245,20.7903458 C28.9092245,20.7903458 29.1040523,17.2141405 31.4590369,14.162813 L22.3705542,14.162813 L24.370706,9.80315637 L38.094906,9.80315637 C38.094906,9.80315637 43.7336613,6.43824597 47.9916127,6.75133751 C47.9916127,6.75133751 53.532739,7.06492033 55.0226454,7.95739304 C55.0226454,7.95739304 62.3635879,10.4298163 65.6528664,9.85091193 L77.9444444,36.6437476 L75.9960969,41.3232581 C75.9960969,41.3232581 79.5893196,45.2130462 76.9358848,49.934518 C76.1968904,51.5144541 74.305841,53.0461577 71.2054385,53.1846127 C71.2054385,53.1846127 71.6753394,56.3690837 69.503723,58.1598407 C69.503723,58.1598407 67.9047003,60.4696841 64.0309106,59.8299907 C64.0309106,59.8299907 64.2546372,62.6343187 61.6928935,64.5037099 C61.6928935,64.5037099 58.6387874,67.2655853 53.9283604,63.8944096 C53.9283604,63.8944096 53.1774485,67.0542832 49.4127751,67.7060375 C49.4127751,67.7060375 46.6676493,68.1580682 45.0690844,66.5298881 C45.0690844,66.5298881 42.1924086,72.228758 38.094906,69.020159 C38.094906,69.020159 35.5047352,66.7590396 37.3270266,63.5629845 C37.3270266,63.5629845 33.8314468,69.364127 29.6825978,65.003983 C29.6825978,65.003983 27.3849253,63.183317 29.516655,59.3779601 C29.516655,59.3779601 26.2214108,63.3159835 22.594267,59.7460493 C22.594267,59.7460493 20.1242142,57.6229035 22.095495,53.6670234 C22.095495,53.6670234 18.7319369,57.8525362 14.8118646,53.8599963 C14.8118646,53.8599963 13.1674487,52.2622151 14.1132009,48.7106173 L17.9067593,43.2529585 L12.7777778,36.3600897 Z" id="Fill-4" fill="#46B5D8" mask="url(#mask-2)"></path>
                        </g>
                    </g>
                </g>
            </g>
        </g>
    </g>
</svg>