<?xml version="1.0" encoding="UTF-8"?>
<svg width="212px" height="212px" viewBox="0 0 212 212" version="1.1" xmlns="http://www.w3.org/2000/svg" xmlns:xlink="http://www.w3.org/1999/xlink">
    <!-- Generator: Sketch 49.2 (51160) - http://www.bohemiancoding.com/sketch -->
    <title>62</title>
    <desc>Created with Sketch.</desc>
    <defs></defs>
    <g id="Page-1" stroke="none" stroke-width="1" fill="none" fill-rule="evenodd">
        <g id="平台服务-copy" transform="translate(-557.000000, -2574.000000)">
            <g id="Group-15" transform="translate(557.000000, 2574.000000)">
                <g id="Group-16" transform="translate(1.000000, 1.000000)">
                    <circle id="Oval-3-Copy" stroke="#46B5D8" stroke-width="2" fill="#FFFFFF" cx="105" cy="105" r="105"></circle>
                    <g id="园区面积" transform="translate(70.000000, 70.000000)" fill="#46B5D8" fill-rule="nonzero">
                        <path d="M17.2725,55.475 C17.42125,55.9125 17.5,56.385 17.5,56.875 L17.5,65.625 C17.5,68.0412458 15.5412458,70 13.125,70 L4.375,70 C1.95875422,70 2.95904766e-16,68.0412458 0,65.625 L0,56.875 C-2.95904766e-16,54.4587542 1.95875422,52.5 4.375,52.5 L13.125,52.5 C13.41375,52.5 13.698125,52.52625 13.97375,52.583125 L52.583125,13.97375 C52.5279803,13.6941952 52.500141,13.4099418 52.5,13.125 L52.5,4.375 C52.5,1.95875422 54.4587542,4.43857149e-16 56.875,0 L65.625,0 C68.0412458,4.4400671e-15 70,1.95875422 70,4.375 L70,13.125 C70,15.5412458 68.0412458,17.5 65.625,17.5 L56.875,17.5 C56.3990593,17.5008994 55.926167,17.4240544 55.475,17.2725 L17.2725,55.475 Z M57.369375,52.5 L65.625,52.5 C68.0412458,52.5 70,54.4587542 70,56.875 L70,65.625 C70,68.0412458 68.0412458,70 65.625,70 L56.875,70 C54.4587542,70 52.5,68.0412458 52.5,65.625 L52.5,57.369375 L48.619375,61.25 L42.42875,61.25 L61.25,42.42875 L61.25,48.619375 L57.369375,52.5 Z M11.935,17.5 L4.375,17.5 C1.95875422,17.5 2.95904766e-16,15.5412458 0,13.125 L0,4.375 C-2.95904766e-16,1.95875422 1.95875422,4.43857149e-16 4.375,0 L13.125,0 C15.5412458,1.47952383e-16 17.5,1.95875422 17.5,4.375 L17.5,11.935 L20.685,8.75 L26.87125,8.75 L8.75,26.87125 L8.75,20.685 L11.935,17.5 Z M45.434375,8.75 L8.75,45.434375 L8.75,39.24375 L39.24375,8.75 L45.434375,8.75 Z M61.25,30.05625 L30.05625,61.25 L23.87,61.25 L61.25,23.87 L61.25,30.05625 Z" id="Shape"></path>
                    </g>
                </g>
            </g>
        </g>
    </g>
</svg>