<?xml version="1.0" encoding="UTF-8"?>
<svg width="212px" height="212px" viewBox="0 0 212 212" version="1.1" xmlns="http://www.w3.org/2000/svg" xmlns:xlink="http://www.w3.org/1999/xlink">
    <!-- Generator: Sketch 49.2 (51160) - http://www.bohemiancoding.com/sketch -->
    <title>63</title>
    <desc>Created with Sketch.</desc>
    <defs></defs>
    <g id="Page-1" stroke="none" stroke-width="1" fill="none" fill-rule="evenodd">
        <g id="平台服务-copy" transform="translate(-854.000000, -2574.000000)">
            <g id="Group-17" transform="translate(854.000000, 2574.000000)">
                <g id="Group-19" transform="translate(1.000000, 1.000000)">
                    <circle id="Oval-3-Copy-2" stroke="#46B5D8" stroke-width="2" fill="#FFFFFF" cx="105" cy="105" r="105"></circle>
                    <g id="网络IP定位" transform="translate(61.000000, 62.000000)" fill="#46B5D8" fill-rule="nonzero">
                        <path d="M72,35 C78.0705882,35 83,30.0588235 83,24 C83,17.9294118 78.0588235,13 72,13 C65.9294118,13 61,17.9411765 61,24 C61,30.0588235 65.9294118,35 72,35 Z M72,16.6588235 C76.0352941,16.6588235 79.3411765,19.9529412 79.3411765,24 C79.3411765,28.0470588 76.0470588,31.3411765 72,31.3411765 C67.9529412,31.3411765 64.6588235,28.0470588 64.6588235,24 C64.6588235,19.9529412 67.9529412,16.6588235 72,16.6588235 Z" id="Shape"></path>
                        <path d="M69.3963657,56.9069767 C70.1074905,57.627907 71.0480103,58 71.9885302,58 C72.9290501,58 73.86957,57.6395349 74.5806948,56.9069767 L86.6812862,44.6627907 L88.3329309,42.9883721 C98.19692,32.9883721 98.804817,16.3255814 88.6311445,6.6627907 C83.9514845,2.22093023 77.9757423,0 72,0 C66.0242577,0 60.0370457,2.22093023 55.3688555,6.6627907 C45.195183,16.3372093 45.80308,32.9883721 55.6670691,42.9883721 L69.3963657,56.9069767 Z M57.8119133,9.29069767 C61.6657509,5.62790698 66.712443,3.61627907 72,3.61627907 C77.2990267,3.61627907 82.3342491,5.63953488 86.176617,9.29069767 C90.1107429,13.0232558 92.3244056,18.2093023 92.4046938,23.8837209 C92.4964519,30.0232558 90.0878034,36.0581395 85.7866453,40.4069767 L84.1350006,42.0813953 L71.9311815,54.3488372 L63.5123814,45.8139535 L58.1904152,40.4186047 C53.8892571,36.0581395 51.4806086,30.0348837 51.5723666,23.8953488 C51.6641247,18.2209302 53.8777874,13.0348837 57.8119133,9.29069767 Z" id="Shape"></path>
                        <path d="M72.0835849,60.4698814 C71.051168,60.4698814 70.0071508,60.0770297 69.2183378,59.2913265 L68.5803273,58.6558312 C67.2115048,62.4225851 65.1814715,65.8773687 62.6062291,68.8584193 C58.9521691,66.4782006 54.8457016,64.6063781 50.4376291,63.3469419 C51.1684411,59.1988908 51.6208486,54.6464335 51.7368505,49.8397782 L59.740982,49.8397782 L55.0313046,45.1486674 L51.7368505,45.1486674 C51.7020499,43.8430134 51.6324488,42.5720228 51.5512474,41.3125867 C46.3427618,34.5185642 44.4867313,25.8065013 46.2847608,17.8685873 C45.8787542,17.0366662 45.4611473,16.2509629 45.0203401,15.5345864 C45.6119498,15.6732399 46.2035595,15.8350023 46.783569,16.0083192 C47.2475767,14.5062394 47.8391864,13.038823 48.5699984,11.6291789 C45.1131416,10.577723 41.4590815,10 37.654219,10 C16.8666773,10 0,26.7886304 0,47.5057772 C3.29697249e-15,68.1998151 16.8666773,85 37.654219,85 C53.9060861,85 67.7335134,74.728085 73,60.3658912 C72.698395,60.4236635 72.3967901,60.4698814 72.0835849,60.4698814 Z M45.8555538,32.7045139 C46.4819641,36.3326144 46.9111711,40.49222 47.027173,45.1486674 L28.2812649,45.1486674 C28.3856666,40.4806655 28.8148737,36.3210599 29.4528842,32.7045139 C32.1093278,33.1782468 34.8353726,33.4324449 37.654219,33.4324449 C40.4614651,33.4324449 43.1991101,33.1782468 45.8555538,32.7045139 Z M47.0155729,49.8397782 C46.9111711,54.4962255 46.4819641,58.6558312 45.8439536,62.2839316 C43.1991101,61.8101987 40.4614651,61.5675551 37.654219,61.5675551 C34.8469728,61.5675551 32.1093278,61.8217532 29.4528842,62.2954861 C28.8264739,58.6673856 28.3972668,54.50778 28.2812649,49.8513326 L47.0155729,49.8513326 L47.0155729,49.8397782 Z M37.654219,14.6795563 C39.3826474,14.6795563 42.7003019,19.3128948 44.9043382,28.1173933 C42.5610996,28.5217994 40.1366598,28.7413342 37.654219,28.7413342 C35.1717782,28.7413342 32.7589385,28.5217994 30.4157,28.1173933 C32.608136,19.3013403 35.9257906,14.6795563 37.654219,14.6795563 Z M30.2880979,15.5345864 C28.5016685,18.4463103 26.9820435,22.3748267 25.8336247,27.0312741 C22.3419673,26.0144816 19.0707135,24.5586196 16.1010647,22.7330149 C20.1031305,19.2782314 24.9520102,16.7593591 30.2880979,15.5345864 Z M12.6790084,26.1415807 C16.3330685,28.5217994 20.439536,30.3820675 24.8708088,31.6299492 C24.1399968,35.7780003 23.6875894,40.3304576 23.5715875,45.1486674 L4.82567933,45.1486674 C5.34768791,37.9155754 8.20133482,31.3295332 12.6790084,26.1415807 Z M4.83727952,49.8397782 L23.5831877,49.8397782 C23.6875894,54.657988 24.151597,59.2104452 24.882409,63.3584964 C20.4627364,64.6179325 16.3562689,66.4666461 12.6906086,68.8468649 C8.21293501,63.6589123 5.34768791,57.0728701 4.83727952,49.8397782 Z M16.1010647,72.2554306 C19.0591133,70.4298259 22.3303671,68.9855184 25.8336247,67.9571715 C26.9820435,72.6136189 28.5016685,76.5421353 30.2996981,79.4538592 C24.9520102,78.2290864 20.1031305,75.7217686 16.1010647,72.2554306 Z M37.654219,80.3088892 C35.9257906,80.3088892 32.608136,75.6755508 30.4157,66.8710522 C32.7589385,66.4666461 35.1833784,66.2471114 37.654219,66.2471114 C40.1366598,66.2471114 42.5494994,66.4782006 44.9043382,66.8710522 C42.7003019,75.6755508 39.3826474,80.3088892 37.654219,80.3088892 Z M45.0203401,79.4538592 C46.8067694,76.5421353 48.3379946,72.6136189 49.4864135,67.9571715 C52.9896711,68.973964 56.2609248,70.4298259 59.2305737,72.2438761 C55.2053075,75.7102141 50.3564278,78.2290864 45.0203401,79.4538592 Z" id="Shape"></path>
                    </g>
                </g>
            </g>
        </g>
    </g>
</svg>