<?xml version="1.0" encoding="UTF-8"?>
<svg width="212px" height="212px" viewBox="0 0 212 212" version="1.1" xmlns="http://www.w3.org/2000/svg" xmlns:xlink="http://www.w3.org/1999/xlink">
    <!-- Generator: Sketch 49.2 (51160) - http://www.bohemiancoding.com/sketch -->
    <title>64</title>
    <desc>Created with Sketch.</desc>
    <defs></defs>
    <g id="Page-1" stroke="none" stroke-width="1" fill="none" fill-rule="evenodd">
        <g id="平台服务-copy" transform="translate(-1151.000000, -2574.000000)" stroke="#46B5D8">
            <g id="Group-20" transform="translate(1151.000000, 2574.000000)">
                <g id="Group-21" transform="translate(1.000000, 1.000000)">
                    <circle id="Oval-3-Copy-3" stroke-width="2" fill="#FFFFFF" cx="105" cy="105" r="105"></circle>
                    <g id="等级" transform="translate(65.000000, 72.000000)" fill="#46B5D8" fill-rule="nonzero">
                        <path d="M77.434109,24.8146344 L41.9794213,72.3859998 C41.3268641,73.3925397 40.2050813,74 39.0001277,74 C37.7952631,74 36.6733913,73.3925397 36.0207451,72.3859998 L0.566057343,24.8146344 C-0.12990879,23.7426716 -0.187816959,22.3816989 0.412880794,21.254657 L19.6151943,1.87374678 C20.2297686,0.720889468 21.4355228,0 22.7477534,0 L54.8127197,0 C56.1023563,0 57.2917432,0.696842076 57.9150349,1.81866776 L77.5569527,21.199578 C78.1887838,22.335284 78.1421727,23.7255202 77.434109,24.8146344 Z M38.9020992,64.6329114 L52.626506,24.3544304 L25.373494,24.3544304 L38.9020992,64.6329114 Z M35.7108434,65.5696203 L21.7548789,24.3544304 L4.69879518,24.3544304 L35.7108434,65.5696203 Z M22.0895298,3.74683544 L4.69879518,21.5443038 L21.5255625,21.5443038 L34.7710843,3.74683544 L22.0895298,3.74692472 L22.0895298,3.74683544 Z M26.313253,21.5443038 L51.686747,21.5443038 L38.9102759,4.6835443 L26.313253,21.5443038 Z M55.2934109,3.74683544 L43.2289157,3.74683544 L56.8089077,21.5200129 L56.7845061,21.5443038 L73.3012048,21.5443038 L55.2934109,3.74683544 Z M56.4454843,24.3544304 L42.2891566,66.5063291 L73.3012048,24.3544304 L56.4454843,24.3544304 Z" id="Shape"></path>
                    </g>
                </g>
            </g>
        </g>
    </g>
</svg>