<?xml version="1.0" encoding="UTF-8"?>
<svg width="212px" height="212px" viewBox="0 0 212 212" version="1.1" xmlns="http://www.w3.org/2000/svg" xmlns:xlink="http://www.w3.org/1999/xlink">
    <!-- Generator: Sketch 49.2 (51160) - http://www.bohemiancoding.com/sketch -->
    <title>65</title>
    <desc>Created with Sketch.</desc>
    <defs></defs>
    <g id="Page-1" stroke="none" stroke-width="1" fill="none" fill-rule="evenodd">
        <g id="平台服务-copy" transform="translate(-1448.000000, -2574.000000)">
            <g id="Group-22" transform="translate(1448.000000, 2574.000000)">
                <g id="Group-26" transform="translate(1.000000, 1.000000)">
                    <circle id="Oval-3-Copy-4" stroke="#46B5D8" stroke-width="2" fill="#FFFFFF" cx="105" cy="105" r="105"></circle>
                    <g id="坐标" transform="translate(69.000000, 67.000000)" fill="#46B5D8" fill-rule="nonzero">
                        <path d="M63.4132828,26.8589595 C63.3682691,30.9165915 62.070947,34.6265976 60.3185308,38.2070725 C57.6927849,43.5724742 54.2063418,48.3669644 50.4169557,52.953023 C46.8894166,57.222361 43.1039482,61.2530805 39.0635888,65.043265 C37.6516936,66.367326 36.3633264,66.4079742 34.915932,65.1103465 C27.4215105,58.3920546 20.6862455,51.0264264 15.5450092,42.3131788 C14.7082981,40.8952037 13.9497812,39.4333861 13.2964829,37.9207782 C12.6773246,36.4870709 13.2112527,34.9874002 14.5480716,34.3682539 C15.8887283,33.7472709 17.4292683,34.2919887 18.0814473,35.7088457 C21.1542121,42.3832151 25.6487862,48.0545563 30.5603168,53.4332945 C32.4540904,55.5072308 34.4380513,57.4939612 36.4918114,59.4110545 C36.745823,59.6479161 36.9056496,59.8403761 37.2664788,59.4774172 C44.0725025,52.6276776 50.4444598,45.4354232 55.0834295,36.8858065 C56.4356795,34.3935691 57.5631808,31.7892898 57.9408801,28.951423 C58.5100675,24.6734602 57.6498501,20.60353 55.6179972,16.8495216 C51.7483379,9.69975204 45.7418472,5.62247479 37.5438367,5.3349826 C28.2048928,5.00764088 19.9071007,11.0313996 16.967778,19.9272845 C16.2294094,22.1620567 15.8383579,24.4524106 15.8078957,26.805933 C15.7861484,28.4885606 14.6815938,29.6766218 13.1591232,29.6727087 C11.6318555,29.6690352 10.516667,28.453183 10.5211444,26.7975478 C10.5556842,14.2832549 19.1856823,3.44224616 31.3480166,0.635125097 C41.4105375,-1.68765136 52.1899198,2.48920999 58.2805215,11.0616663 C61.644796,15.7966617 63.3162194,21.0748575 63.4132828,26.8589595 Z M7.15966808,68.6538467 C27.0651586,68.6538467 46.8563958,68.6538467 66.6645832,68.6538467 C66.6616249,68.3121304 66.4362366,68.0890045 66.2934401,67.8388065 C63.7109489,63.3087292 61.122781,58.7815267 58.5299757,54.257279 C57.9735808,53.2865937 57.9391209,52.3199015 58.5581193,51.3810799 C59.1157135,50.5350545 59.933156,50.1256178 60.949762,50.1951749 C61.8633083,50.2581037 62.5822483,50.7062721 63.0344641,51.4939206 C66.5733565,57.6591894 70.1167263,63.8219825 73.6189202,70.0079346 C74.7000485,71.9178407 73.3632296,73.9558404 71.0896779,73.9563994 C59.2458775,73.9603125 47.402077,73.9582362 35.5585964,73.9582362 C24.7339606,73.9582362 13.908765,73.9040918 3.08508863,73.9998427 C0.65586789,74.0214845 -0.833501978,71.8058785 0.501877836,69.561683 C3.99631628,63.6894166 7.31805558,57.7146114 10.7123125,51.7826905 C11.4433255,50.505347 12.5860179,49.944338 13.7826787,50.2547497 C15.5525247,50.7145774 16.3227148,52.591342 15.3847028,54.2484147 C13.5732011,57.4492403 11.7353948,60.635292 9.91030113,63.8283712 C9.0129054,65.3984775 8.11918752,66.9702609 7.15966808,68.6538467 Z M47.538957,26.4164613 C47.5395966,32.2518328 42.7724618,36.9952133 36.9202808,36.9820366 C31.1182306,36.9690995 26.3858754,32.222844 26.3860353,26.41718 C26.3863551,20.5751004 31.1417369,15.8432993 37.0019132,15.85424 C42.8036436,15.8649411 47.5384774,20.6112764 47.538957,26.4164613 Z M36.9947174,21.136269 C34.0580331,21.1370676 31.6797426,23.493385 31.6748654,26.4067983 C31.6699882,29.3531135 34.0844177,31.7275589 37.057001,31.6996881 C39.9112534,31.6729353 42.2628395,29.2666262 42.2505267,26.3854759 C42.238214,23.5090374 39.8620022,21.1356301 36.9947174,21.136269 Z" id="Shape"></path>
                    </g>
                </g>
            </g>
        </g>
    </g>
</svg>